<?xml version="1.0" encoding="utf-8" standalone="yes"?>
<!DOCTYPE svg PUBLIC "-//W3C//DTD SVG 1.1//EN" "http://www.w3.org/Graphics/SVG/1.1/DTD/svg11.dtd">
<svg width="1002" height="533" viewBox="0 0 1002 533" style="fill:none;stroke:none;fill-rule:evenodd;clip-rule:evenodd;stroke-linecap:round;stroke-linejoin:round;stroke-miterlimit:1.5;" version="1.1" xmlns="http://www.w3.org/2000/svg" xmlns:xlink="http://www.w3.org/1999/xlink"><style class="text-font-style fontImports" data-font-family="Roboto">@import url(https://fonts.googleapis.com/css2?family=Roboto:wght@400;700&amp;amp;display=block);</style><g id="items" style="isolation: isolate"><g id="blend" style="mix-blend-mode: normal"><g id="g-root-ro_1ut1d3fingvm0-fill" data-item-order="17999975808" transform="translate(104.15792846679688, 3)"><g id="ro_1ut1d3fingvm0-fill-merged" stroke="none" fill="#fff2e5"><g><path d="M16 10 H292C292 10 298 10 298 16 V88C298 88 298 94 292 94 H16C16 94 10 94 10 88 V16C10 16 10 10 16 10"></path></g></g></g><g id="g-root-ro_1ut1d3fingvm2-fill" data-item-order="17999978400" transform="translate(485, 6)"><g id="ro_1ut1d3fingvm2-fill-merged" stroke="none" fill="#f4ffdc"><g><path d="M16 10 H364C364 10 370 10 370 16 V64C370 64 370 70 364 70 H16C16 70 10 70 10 64 V16C10 16 10 10 16 10"></path></g></g></g><g id="g-root-ro_hz0tqjingvt2-fill" data-item-order="17999978400" transform="translate(3, 340.5)"><g id="ro_hz0tqjingvt2-fill-merged" stroke="none" fill="#e8f9ff"><g><path d="M16 10 H364C364 10 370 10 370 16 V64C370 64 370 70 364 70 H16C16 70 10 70 10 64 V16C10 16 10 10 16 10"></path></g></g></g><g id="g-root-ro_4nkbd7ingvsz-fill" data-item-order="17999979512" transform="translate(535.5789184570312, 135)"><g id="ro_4nkbd7ingvsz-fill-merged" stroke="none" fill="#faf0ff"><g><path d="M16 10 H345.47C345.47 10 351.47 10 351.47 16 V64C351.47 64 351.47 70 345.47 70 H16C16 70 10 70 10 64 V16C10 16 10 10 16 10"></path></g></g></g><g id="g-root-ro_4nkbd7ingvt3-fill" data-item-order="17999980560" transform="translate(3, 177)"><g id="ro_4nkbd7ingvt3-fill-merged" stroke="none" fill="#ffebf7"><g><path d="M16 10 H328C328 10 334 10 334 16 V64C334 64 334 70 328 70 H16C16 70 10 70 10 64 V16C10 16 10 10 16 10"></path></g></g></g><g id="g-root-ro_hz0tqjingvt4-fill" data-item-order="17999982720" transform="translate(518.4210205078125, 336)"><g id="ro_hz0tqjingvt4-fill-merged" stroke="none" fill="#edf4ff"><g><path d="M15.999 10 H291.999C291.999 10 297.999 10 297.999 16 V64C297.999 64 297.999 70 291.999 70 H15.999C15.999 70 9.999 70 9.999 64 V16C9.999 16 9.999 10 15.999 10"></path></g></g></g><g id="g-root-ro_93dthningvt5-fill" data-item-order="17999983440" transform="translate(375, 213)"><g id="ro_93dthningvt5-fill-merged" stroke="none" fill="#f5f5f5"><g><path d="M16 10 H124C124 10 130 10 130 16 V142C130 142 130 148 124 148 H16C16 148 10 148 10 142 V16C10 16 10 10 16 10"></path></g></g></g><g id="g-root-cr_hz0tqjingvta-fill" data-item-order="17999996400" transform="translate(411, 381)"><g id="cr_hz0tqjingvta-fill-merged" stroke="none" fill="url(#gradient-fcaa5f-123734360)"><g><path d="M10.001 40.001C10.001 56.57 23.433 70.001 40.001 70.001C56.57 70.001 70.001 56.57 70.001 40.001C70.001 23.433 56.57 10.001 40.001 10.001C23.433 10.001 10.001 23.433 10.001 40.001"></path></g></g></g><g id="g-root-cr_4nkbd7ingvsx-fill" data-item-order="17999996400" transform="translate(444.6842041015625, 141.5791015625)"><g id="cr_4nkbd7ingvsx-fill-merged" stroke="none" fill="url(#gradient-fcaa5f-123734360)"><g><path d="M10.001 40.001C10.001 56.57 23.433 70.001 40.001 70.001C56.57 70.001 70.001 56.57 70.001 40.001C70.001 23.433 56.57 10.001 40.001 10.001C23.433 10.001 10.001 23.433 10.001 40.001"></path></g></g></g><g id="g-root-cr_4nkbd7ingvsw-fill" data-item-order="17999996400" transform="translate(339.368408203125, 145.2109375)"><defs><linearGradient id="gradient-fcaa5f-123734360" x2="0" y2="1"><stop offset="0" stop-color="#ffbf84"></stop><stop offset="1" stop-color="#f99539"></stop></linearGradient></defs><g id="cr_4nkbd7ingvsw-fill-merged" stroke="none" fill="url(#gradient-fcaa5f-123734360)"><g><path d="M10.001 40.001C10.001 56.57 23.433 70.001 40.001 70.001C56.57 70.001 70.001 56.57 70.001 40.001C70.001 23.433 56.57 10.001 40.001 10.001C23.433 10.001 10.001 23.433 10.001 40.001"></path></g></g></g><g id="g-root-id-2_hz0tqjingvtb-fill" data-item-order="17999997696" transform="translate(417, 356.947265625)"><g id="id-2_hz0tqjingvtb-fill-merged" stroke="none" fill="#000000"><g><path d="M34 28C27.929 28.011 23.011 32.929 23 39 V45C23 45.552 23.448 46 24 46 H27.62C27.881 45.999 28.099 46.2 28.12 46.46L29.02 57.1C29.062 57.61 29.489 58.002 30 58 H38C38.519 58.012 38.958 57.618 39 57.1L40 46.44C40.011 46.183 40.223 45.98 40.48 45.98 H44C44.552 45.98 45 45.532 45 44.98 V38.98C44.989 32.913 40.067 28 34 28 M35.5 39.9C35.5 40.728 34.828 41.4 34 41.4C33.172 41.4 32.5 40.728 32.5 39.9 V32C32.5 31.172 33.172 30.5 34 30.5C34.828 30.5 35.5 31.172 35.5 32 V39.9 M34 26.28C37.296 26.288 40.271 24.308 41.537 21.264C42.802 18.221 42.106 14.715 39.776 12.384C37.445 10.054 33.939 9.358 30.896 10.623C27.852 11.889 25.872 14.864 25.88 18.16C25.891 22.64 29.52 26.269 34 26.28 M30.16 16.72C30.205 16.577 30.317 16.465 30.46 16.42C30.594 16.361 30.746 16.361 30.88 16.42C32.44 17.42 34.247 17.967 36.1 18C36.589 18.001 37.078 17.961 37.56 17.88C37.718 17.839 37.885 17.885 38 18C38.113 18.094 38.179 18.233 38.18 18.38C38.18 19.462 37.743 20.498 36.966 21.252C36.19 22.005 35.142 22.412 34.06 22.38C32.941 22.391 31.865 21.949 31.078 21.154C30.29 20.359 29.858 19.279 29.88 18.16C29.878 17.666 29.974 17.177 30.16 16.72 M24.56 31.78C24.645 31.617 24.645 31.423 24.56 31.26C22.3 22.6 22.4 22.48 21.04 21.2C20.909 21.083 20.735 21.025 20.56 21.04C20.378 21.061 20.216 21.164 20.12 21.32L18 24.62C17.896 24.797 17.706 24.906 17.5 24.906C17.294 24.906 17.104 24.797 17 24.62L15 21.3C14.904 21.153 14.752 21.052 14.58 21.02C14.372 20.966 14.151 21.027 14 21.18C12.6 22.46 12.7 22.62 10.34 31.18C10.294 31.36 10.331 31.55 10.44 31.7C10.546 31.877 10.734 31.99 10.94 32 H13.12C13.609 31.992 14.032 32.339 14.12 32.82L15.12 39.52C15.183 39.793 15.421 39.989 15.7 40 H19.3C19.582 39.996 19.824 39.796 19.88 39.52L20.9 32.82C20.979 32.342 21.396 31.994 21.88 32 H24.1C24.279 32.002 24.449 31.92 24.56 31.78 M12.48 15.02C12.48 17.781 14.719 20.02 17.48 20.02C20.241 20.02 22.48 17.781 22.48 15.02C22.48 12.259 20.241 10.02 17.48 10.02C14.719 10.02 12.48 12.259 12.48 15.02 M57.64 31.26C55.28 22.62 55.38 22.46 53.98 21.26C53.851 21.139 53.676 21.08 53.5 21.1C53.328 21.132 53.176 21.233 53.08 21.38L50.98 24.62C50.881 24.801 50.687 24.91 50.48 24.9C50.283 24.894 50.102 24.789 50 24.62L48 21.32C47.904 21.164 47.742 21.061 47.56 21.04C47.385 21.025 47.211 21.083 47.08 21.2C45.72 22.48 45.82 22.6 43.46 31.2C43.375 31.363 43.375 31.557 43.46 31.72C43.573 31.908 43.782 32.016 44 32 H46.22C46.704 31.994 47.121 32.342 47.2 32.82L48.22 39.52C48.276 39.796 48.518 39.996 48.8 40 H52.4C52.679 39.989 52.917 39.793 52.98 39.52L53.98 32.82C54.068 32.339 54.491 31.992 54.98 32 H57.16C57.347 31.992 57.521 31.904 57.64 31.76C57.71 31.601 57.71 31.419 57.64 31.26 M45.52 15.02C45.52 17.781 47.759 20.02 50.52 20.02C53.281 20.02 55.52 17.781 55.52 15.02C55.52 12.259 53.281 10.02 50.52 10.02C47.759 10.02 45.52 12.259 45.52 15.02"></path></g></g></g><g id="g-root-micr_93dthningvt6-fill" data-item-order="17999997696" transform="translate(411, 219)"><g id="micr_93dthningvt6-fill-merged" stroke="none" fill="#fd6a65"><g><path d="M57.7 24.3L47.7 14.3C47.481 14.037 47.133 13.921 46.8 14C46.7 13.991 46.6 13.991 46.5 14 H11C10.448 14 10 14.448 10 15 V53C10 53.552 10.448 54 11 54 H20C20.552 54 21 53.552 21 53 V30 H28 V53C28 53.552 28.448 54 29 54 H38C38.552 54 39 53.552 39 53 V30 H46 V53C46 53.552 46.448 54 47 54 H57C57.552 54 58 53.552 58 53 V25C58.003 24.735 57.894 24.481 57.7 24.3 M21 26 V18 H28 V26 H21 M39 26 V18 H46 V26 H39"></path></g></g></g><g id="g-root-id-2_4nkbd7ingvsy-fill" data-item-order="17999997696" transform="translate(450.6842041015625, 117.52734375)"><g id="id-2_4nkbd7ingvsy-fill-merged" stroke="none" fill="#000000"><g><path d="M29.28 42.92 V36.6C29.28 35.495 28.385 34.6 27.28 34.6 H17.86C16.755 34.6 15.86 35.495 15.86 36.6 V42.94 H29.28 M50.82 42.92 V36.6C50.82 35.495 49.925 34.6 48.82 34.6 H39.4C38.295 34.6 37.4 35.495 37.4 36.6 V42.92 H50.82 M51.36 46 H16.36C13.046 46 10.36 48.686 10.36 52C10.36 55.314 13.046 58 16.36 58 H51.36C54.674 58 57.36 55.314 57.36 52C57.36 48.686 54.674 46 51.36 46 M18.86 54C17.755 54 16.86 53.105 16.86 52C16.86 50.895 17.755 50 18.86 50C19.965 50 20.86 50.895 20.86 52C20.86 53.105 19.965 54 18.86 54 M28.86 54C27.755 54 26.86 53.105 26.86 52C26.86 50.895 27.755 50 28.86 50C29.965 50 30.86 50.895 30.86 52C30.86 53.105 29.965 54 28.86 54 M38.86 54C37.755 54 36.86 53.105 36.86 52C36.86 50.895 37.755 50 38.86 50C39.965 50 40.86 50.895 40.86 52C40.861 53.074 40.013 53.957 38.94 54 H38.86 M48.86 54C47.755 54 46.86 53.105 46.86 52C46.86 50.895 47.755 50 48.86 50C49.965 50 50.86 50.895 50.86 52C50.861 53.074 50.013 53.957 48.94 54 H48.86 M54.88 16.52 V13.38C54.88 11.513 53.367 10 51.5 10C49.633 10 48.12 11.513 48.12 13.38 V16.52C47.366 17.048 46.732 17.73 46.26 18.52 H37.24C35.958 18.523 34.789 19.251 34.22 20.4 H27.3 V19.78C27.3 18.675 26.405 17.78 25.3 17.78 H21.3C20.195 17.78 19.3 18.675 19.3 19.78 V23.78C19.3 24.885 20.195 25.78 21.3 25.78 H21.84 V30.24C21.84 31.068 22.512 31.74 23.34 31.74C24.168 31.74 24.84 31.068 24.84 30.24 V25.86 H25.38C26.485 25.86 27.38 24.965 27.38 23.86 V23.32 H34.3C34.861 24.475 36.036 25.206 37.32 25.2 H46.6C48.037 27.178 50.514 28.111 52.898 27.573C55.283 27.034 57.119 25.128 57.567 22.725C58.016 20.321 56.991 17.882 54.96 16.52 H54.88"></path></g></g></g><g id="g-root-moni_1ut1d3fingvm4-fill" data-item-order="17999999100" transform="translate(491, 21)"><g id="moni_1ut1d3fingvm4-fill-merged" stroke="none" fill="#cd6afb"><g><path d="M26.563 10C25.975 10 25.413 10.2 24.994 10.619C24.575 11.036 24.375 11.6 24.375 12.188 V20.938C24.375 21.525 24.575 22.087 24.994 22.506C25.411 22.925 25.975 23.125 26.563 23.125 H30.938 V24.688 H29.688C28.997 24.688 28.438 25.247 28.438 25.938C28.438 26.628 28.997 27.188 29.688 27.188 H34.688C35.378 27.188 35.938 26.628 35.938 25.938C35.938 25.247 35.378 24.688 34.688 24.688 H33.438 V23.125 H37.813C38.4 23.125 38.963 22.925 39.381 22.506C39.8 22.089 40 21.525 40 20.938 V12.188C40 11.6 39.8 11.038 39.381 10.619C38.964 10.2 38.4 10 37.813 10 H26.563 M35.955 13.868C36.408 14.119 36.571 14.69 36.32 15.142L34.445 18.517C34.311 18.759 34.077 18.93 33.806 18.983C33.535 19.037 33.254 18.968 33.039 18.795L30.774 16.983L29.691 18.899C29.437 19.35 28.865 19.508 28.414 19.254C27.963 18.999 27.804 18.427 28.059 17.976L29.684 15.101C29.819 14.862 30.052 14.694 30.322 14.641C30.592 14.589 30.872 14.658 31.086 14.83L33.344 16.638L34.681 14.233C34.932 13.779 35.503 13.616 35.956 13.868 M17.381 11.387C17.726 11.24 18.126 11.313 18.398 11.573L21.272 14.323C21.457 14.499 21.562 14.744 21.562 15C21.562 15.256 21.457 15.501 21.273 15.678L18.397 18.427C18.126 18.687 17.727 18.759 17.382 18.612C17.037 18.464 16.813 18.125 16.813 17.75 V16.25C15.41 16.281 14.375 17.336 14.375 18.75C14.375 19.44 13.815 20 13.125 20C12.435 20 11.875 19.44 11.875 18.75C11.875 15.955 14.028 13.783 16.813 13.75 V12.25C16.813 11.875 17.038 11.535 17.381 11.387 M35.625 30C36.315 30 36.875 30.56 36.875 31.25C36.875 34.065 34.69 36.25 31.875 36.25 H31.813 V37.75C31.812 38.129 31.584 38.47 31.234 38.615C30.884 38.76 30.481 38.68 30.212 38.413L27.462 35.663C27.097 35.296 27.097 34.704 27.462 34.338L30.212 31.588C30.481 31.32 30.884 31.24 31.234 31.385C31.584 31.53 31.812 31.871 31.813 32.25 V33.75 H31.875C33.31 33.75 34.375 32.685 34.375 31.25C34.375 30.56 34.935 30 35.625 30 M13.375 29.438C13.375 28.852 13.521 28.301 13.779 27.82C15.204 28.958 17.022 29.683 18.935 29.683C19.372 29.683 19.81 29.64 20.247 29.555C20.177 31.424 18.624 32.894 16.754 32.862C14.883 32.83 13.382 31.308 13.375 29.438 M11.5 29.438C11.501 26.761 13.493 24.504 16.148 24.169C18.803 23.834 21.293 25.526 21.958 28.119C22.624 30.711 21.257 33.393 18.769 34.379C20.985 34.959 22.778 36.588 23.568 38.739C23.673 39.026 23.632 39.348 23.457 39.599C23.281 39.85 22.994 40 22.688 40 H10.938C10.628 40 10.338 39.847 10.164 39.592C9.989 39.336 9.951 39.011 10.064 38.722C10.9 36.603 12.681 34.997 14.876 34.385C12.84 33.588 11.5 31.624 11.5 29.438"></path></g></g></g><g id="g-root-secu_hz0tqjingvt7-fill" data-item-order="17999999100" transform="translate(524.4210205078125, 351)"><g id="secu_hz0tqjingvt7-fill-merged" stroke="none" fill="#886aff"><g><path d="M15.488 12.68C14.908 11.519 13.606 10.909 12.343 11.207C11.08 11.505 10.187 12.632 10.187 13.93C10.187 15.228 11.08 16.355 12.343 16.653C13.606 16.951 14.908 16.341 15.488 15.18 H17.604L19.029 17.235C19.097 17.334 19.18 17.422 19.274 17.498C17.152 19.219 15.921 21.807 15.924 24.54C15.921 27.284 17.163 29.881 19.3 31.603C19.208 31.677 19.126 31.764 19.059 31.861L17.609 33.933 H14.811 V32.434C14.811 32.055 14.583 31.713 14.232 31.568C13.882 31.423 13.479 31.503 13.211 31.771L10.462 34.519C10.096 34.885 10.096 35.479 10.462 35.845L13.211 38.594C13.479 38.862 13.882 38.942 14.232 38.797C14.583 38.652 14.811 38.31 14.811 37.931 V36.431 H18.259C18.667 36.432 19.049 36.233 19.284 35.899L21.106 33.295C21.204 33.156 21.272 32.999 21.306 32.833C22.469 33.35 23.727 33.617 25 33.615C26.325 33.615 27.583 33.331 28.716 32.821C28.749 32.986 28.816 33.148 28.919 33.295L30.743 35.899C30.976 36.233 31.358 36.432 31.766 36.433 H35.189 V37.93C35.189 38.309 35.417 38.65 35.768 38.795C36.118 38.94 36.521 38.86 36.789 38.593L39.536 35.845C39.902 35.479 39.902 34.886 39.536 34.52L36.789 31.77C36.52 31.502 36.117 31.422 35.767 31.567C35.417 31.713 35.189 32.055 35.189 32.434 V33.933 H32.416L30.966 31.861C30.895 31.759 30.809 31.668 30.711 31.591C32.841 29.87 34.077 27.278 34.075 24.54C34.077 21.808 32.847 19.22 30.725 17.499C30.818 17.424 30.9 17.336 30.97 17.236L32.395 15.18 H34.511C35.091 16.341 36.393 16.951 37.656 16.653C38.919 16.355 39.811 15.228 39.811 13.93C39.811 12.632 38.919 11.505 37.656 11.207C36.393 10.909 35.091 11.519 34.511 12.68 H31.74C31.33 12.68 30.946 12.881 30.713 13.217L28.915 15.813C28.821 15.948 28.756 16.1 28.721 16.261C27.552 15.734 26.283 15.462 25 15.463C23.717 15.461 22.449 15.732 21.279 16.259C21.244 16.098 21.178 15.945 21.084 15.81L19.288 13.217C19.054 12.881 18.67 12.68 18.26 12.68 H15.489 M24.55 29.814C22.019 28.835 20.349 26.402 20.345 23.689 V21.875C20.345 21.188 20.904 20.63 21.59 20.63 H28.41C29.098 20.63 29.655 21.189 29.655 21.875 V23.685C29.653 26.4 27.983 28.834 25.451 29.813C25.162 29.925 24.841 29.925 24.551 29.813"></path></g></g></g><g id="g-root-corr_1ut1d3fingvm3-fill" data-item-order="17999999100" transform="translate(350.1579284667969, 30)"><g id="corr_1ut1d3fingvm3-fill-merged" stroke="none" fill="#a8dd38"><g><path d="M28.125 14.887 V16.875C28.123 16.973 28.077 17.065 28 17.125L27.862 17.237L21.612 23.487C21.376 23.722 21.243 24.042 21.243 24.375C21.243 24.708 21.376 25.028 21.612 25.263C21.847 25.499 22.167 25.632 22.5 25.632C22.833 25.632 23.153 25.499 23.388 25.263L29.638 19.013L29.75 18.875C29.81 18.798 29.902 18.752 30 18.75 H31.987C32.484 18.747 32.96 18.549 33.313 18.2L36.688 14.813C36.874 14.641 36.93 14.369 36.825 14.137C36.729 13.904 36.502 13.751 36.25 13.75 H33.438C33.265 13.75 33.125 13.61 33.125 13.438 V10.625C33.149 10.354 32.991 10.099 32.737 10C32.506 9.899 32.236 9.954 32.063 10.137L28.675 13.512C28.313 13.878 28.115 14.374 28.125 14.887 M22.5 16.875C18.358 16.875 15 20.233 15 24.375C15 28.517 18.358 31.875 22.5 31.875C23.19 31.875 23.75 31.315 23.75 30.625C23.75 29.935 23.19 29.375 22.5 29.375C19.739 29.375 17.5 27.136 17.5 24.375C17.5 21.614 19.739 19.375 22.5 19.375C23.19 19.375 23.75 18.815 23.75 18.125C23.75 17.435 23.19 16.875 22.5 16.875 M22.5 36.875C23.19 36.875 23.75 36.315 23.75 35.625C23.75 34.935 23.19 34.375 22.5 34.375C16.977 34.375 12.5 29.898 12.5 24.375C12.5 18.852 16.977 14.375 22.5 14.375C23.438 14.377 24.372 14.508 25.275 14.762C25.938 14.956 26.632 14.575 26.825 13.913C27.018 13.25 26.638 12.556 25.975 12.363C21.282 11.012 16.232 12.518 13.046 16.219C9.859 19.919 9.12 25.137 11.152 29.577C13.184 34.018 17.617 36.868 22.5 36.875 M31.875 40C36.362 40 40 36.362 40 31.875C40 27.388 36.362 23.75 31.875 23.75C27.388 23.75 23.75 27.388 23.75 31.875C23.757 36.359 27.391 39.993 31.875 40 M27.637 32.1C27.812 31.921 28.051 31.821 28.3 31.821C28.549 31.821 28.788 31.921 28.962 32.1L30.587 33.725C30.652 33.785 30.737 33.817 30.825 33.813C30.914 33.805 30.996 33.76 31.05 33.688L34.463 29.125C34.777 28.715 35.364 28.637 35.775 28.95C36.163 29.249 36.245 29.8 35.963 30.2L32.338 35.05C32.012 35.49 31.509 35.764 30.963 35.8C30.423 35.831 29.896 35.631 29.512 35.25L27.637 33.375C27.298 33.018 27.298 32.457 27.638 32.1"></path></g></g></g><g id="g-root-floa_hz0tqjingvt6-fill" data-item-order="17999999100" transform="translate(327, 355.5)"><g id="floa_hz0tqjingvt6-fill-merged" stroke="none" fill="#44e095"><g><path d="M25 10C16.716 10 10 16.716 10 25C10 33.284 16.716 40 25 40C33.284 40 40 33.284 40 25C40 16.716 33.284 10 25 10 M25 37.5C18.096 37.5 12.5 31.904 12.5 25C12.5 18.096 18.096 12.5 25 12.5C31.904 12.5 37.5 18.096 37.5 25C37.5 31.904 31.904 37.5 25 37.5 M20 25C20 27.761 22.239 30 25 30C27.761 30 30 27.761 30 25C30 22.239 27.761 20 25 20C22.239 20 20 22.239 20 25 M15 23.275 H17.862C18.132 23.275 18.373 23.104 18.462 22.85C19.153 20.779 20.779 19.153 22.85 18.462C23.1 18.374 23.269 18.14 23.275 17.875 V15C23.276 14.806 23.189 14.622 23.037 14.5C22.886 14.38 22.687 14.338 22.5 14.387C18.476 15.335 15.335 18.476 14.387 22.5C14.342 22.683 14.384 22.877 14.5 23.025C14.619 23.181 14.804 23.273 15 23.275 M27.15 18.462C29.229 19.141 30.859 20.771 31.537 22.85C31.627 23.104 31.868 23.275 32.137 23.275 H35C35.191 23.278 35.372 23.19 35.487 23.037C35.609 22.887 35.655 22.689 35.612 22.5C34.665 18.476 31.524 15.335 27.5 14.387C27.311 14.345 27.113 14.391 26.962 14.512C26.81 14.628 26.722 14.809 26.725 15 V17.862C26.725 18.132 26.896 18.373 27.15 18.462 M22.85 31.537C20.771 30.859 19.141 29.229 18.462 27.15C18.373 26.896 18.132 26.725 17.862 26.725 H15C14.809 26.722 14.628 26.81 14.512 26.962C14.391 27.113 14.345 27.311 14.387 27.5C15.335 31.524 18.476 34.665 22.5 35.612C22.685 35.654 22.879 35.608 23.025 35.487C23.177 35.372 23.265 35.191 23.262 35 V32.137C23.264 31.871 23.099 31.632 22.85 31.537 M35.5 26.962C35.378 26.811 35.194 26.724 35 26.725 H32.137C31.868 26.725 31.627 26.896 31.537 27.15C30.853 29.221 29.231 30.847 27.162 31.537C26.912 31.626 26.743 31.86 26.737 32.125 V35C26.737 35.191 26.824 35.371 26.975 35.487C27.119 35.612 27.315 35.658 27.5 35.612C31.532 34.667 34.68 31.519 35.625 27.487C35.667 27.303 35.621 27.109 35.5 26.962"></path></g></g></g><g id="g-root-aim_4nkbd7ingvt9-fill" data-item-order="17999999100" transform="translate(291, 192)"><g id="aim_4nkbd7ingvt9-fill-merged" stroke="none" fill="#4f92ff"><g><path d="M30 18.75C30 19.44 30.56 20 31.25 20C31.94 20 32.5 19.44 32.5 18.75C32.5 18.06 31.94 17.5 31.25 17.5C30.56 17.5 30 18.06 30 18.75 M38.875 17.5C38.737 17.484 38.623 17.385 38.588 17.25C37.987 14.304 35.684 12.001 32.737 11.4C32.612 11.362 32.519 11.255 32.5 11.125C32.5 10.435 31.94 9.875 31.25 9.875C30.56 9.875 30 10.435 30 11.125C29.984 11.263 29.885 11.377 29.75 11.413C26.804 12.013 24.501 14.316 23.9 17.263C23.865 17.397 23.751 17.496 23.613 17.513C22.922 17.513 22.363 18.072 22.363 18.763C22.363 19.453 22.922 20.013 23.613 20.013C23.751 20.029 23.865 20.128 23.9 20.263C24.501 23.209 26.804 25.512 29.75 26.113C29.885 26.148 29.984 26.262 30 26.4C30 27.09 30.56 27.65 31.25 27.65C31.94 27.65 32.5 27.09 32.5 26.4C32.516 26.262 32.615 26.148 32.75 26.113C35.696 25.512 37.999 23.209 38.6 20.263C38.629 20.127 38.738 20.023 38.875 20C39.565 20 40.125 19.44 40.125 18.75C40.125 18.06 39.565 17.5 38.875 17.5 M33.75 18.75C33.75 19.44 34.31 20 35 20 H35.65C35.752 19.998 35.847 20.051 35.9 20.137C35.949 20.223 35.949 20.327 35.9 20.413C35.396 21.823 34.286 22.933 32.875 23.438C32.79 23.487 32.685 23.487 32.6 23.438C32.513 23.384 32.461 23.289 32.462 23.188 V22.5C32.462 21.81 31.903 21.25 31.212 21.25C30.522 21.25 29.962 21.81 29.962 22.5 V23.15C29.964 23.252 29.912 23.347 29.825 23.4C29.74 23.449 29.635 23.449 29.55 23.4C28.139 22.896 27.029 21.786 26.525 20.375C26.476 20.29 26.476 20.185 26.525 20.1C26.578 20.013 26.673 19.961 26.775 19.962 H27.5C28.19 19.962 28.75 19.403 28.75 18.712C28.75 18.022 28.19 17.462 27.5 17.462 H26.85C26.748 17.464 26.653 17.412 26.6 17.325C26.551 17.24 26.551 17.135 26.6 17.05C27.104 15.639 28.214 14.529 29.625 14.025C29.71 13.976 29.815 13.976 29.9 14.025C29.987 14.078 30.039 14.173 30.038 14.275 V15C30.038 15.69 30.597 16.25 31.288 16.25C31.978 16.25 32.538 15.69 32.538 15 V14.35C32.536 14.248 32.588 14.153 32.675 14.1C32.76 14.051 32.865 14.051 32.95 14.1C34.361 14.604 35.471 15.714 35.975 17.125C36.024 17.21 36.024 17.315 35.975 17.4C35.922 17.487 35.827 17.539 35.725 17.538 H35C34.324 17.537 33.77 18.074 33.75 18.75 M25 32.338L22.75 24.475C22.503 23.453 21.955 22.53 21.175 21.825C21.042 21.697 20.858 21.637 20.675 21.662C20.492 21.685 20.328 21.785 20.225 21.938L18.025 25.4C17.91 25.578 17.712 25.686 17.5 25.686C17.288 25.686 17.09 25.578 16.975 25.4L14.8 21.925C14.701 21.769 14.538 21.665 14.354 21.641C14.171 21.617 13.986 21.675 13.85 21.8C13.065 22.506 12.516 23.435 12.275 24.463L10 32.338C9.949 32.523 9.986 32.721 10.1 32.875C10.217 33.034 10.403 33.127 10.6 33.125 H13.525C13.674 33.127 13.803 33.23 13.837 33.375L15 39.5C15.059 39.791 15.315 40 15.612 40 H19.362C19.669 40.012 19.939 39.8 20 39.5L21.163 33.375C21.197 33.23 21.326 33.127 21.475 33.125 H24.375C24.572 33.127 24.758 33.034 24.875 32.875C24.998 32.725 25.044 32.526 25 32.338 M17.5 20.663C20.431 20.649 22.797 18.264 22.787 15.333C22.778 12.403 20.397 10.033 17.467 10.038C14.536 10.042 12.163 12.419 12.163 15.35C12.169 18.291 14.559 20.669 17.5 20.663 M17.5 18.163C16.232 18.175 15.115 17.334 14.775 16.112C14.752 16.033 14.764 15.947 14.806 15.876C14.849 15.805 14.919 15.755 15 15.737C15.849 15.44 16.618 14.953 17.25 14.313C17.307 14.248 17.389 14.211 17.475 14.211C17.561 14.211 17.643 14.248 17.7 14.313C18.344 14.962 19.132 15.45 20 15.738C20.154 15.791 20.242 15.954 20.2 16.112C19.863 17.325 18.758 18.164 17.5 18.163"></path></g></g></g><g id="g-root-lock_4nkbd7ingvt1-fill" data-item-order="17999999100" transform="translate(544.0526733398438, 150)"><g id="lock_4nkbd7ingvt1-fill-merged" stroke="none" fill="#f99539"><g><path d="M25 19.688 H17.5C16.982 19.688 16.563 20.107 16.563 20.625C16.563 21.143 16.982 21.563 17.5 21.563 H25C25.518 21.563 25.938 21.143 25.938 20.625C25.938 20.107 25.518 19.688 25 19.688 M25 24.063 H17.5C16.982 24.063 16.563 24.482 16.563 25C16.563 25.518 16.982 25.938 17.5 25.938 H25C25.518 25.938 25.938 25.518 25.938 25C25.938 24.482 25.518 24.063 25 24.063 M22.5 30.313C23.018 30.313 23.438 29.893 23.438 29.375C23.438 28.857 23.018 28.438 22.5 28.438 H17.5C16.982 28.438 16.563 28.857 16.563 29.375C16.563 29.893 16.982 30.313 17.5 30.313 H22.5 M25.313 33.75 H14.375C14.03 33.75 13.75 33.47 13.75 33.125 V16.875C13.75 16.53 14.03 16.25 14.375 16.25 H28.125C28.47 16.25 28.75 16.53 28.75 16.875 V24.212C28.75 24.347 28.836 24.466 28.964 24.509C29.091 24.551 29.232 24.508 29.313 24.4C30.053 23.426 31.094 22.723 32.275 22.4C32.406 22.358 32.496 22.238 32.5 22.1 V14.375C32.5 13.339 31.661 12.5 30.625 12.5 H25.625C25.519 12.494 25.421 12.439 25.362 12.35C24.504 10.895 22.94 10.002 21.25 10.002C19.56 10.002 17.996 10.895 17.138 12.35C17.079 12.439 16.981 12.494 16.875 12.5 H11.875C10.839 12.5 10 13.339 10 14.375 V35.625C10 36.661 10.839 37.5 11.875 37.5 H25.313C25.485 37.5 25.625 37.36 25.625 37.188 V34.063C25.625 33.89 25.485 33.75 25.313 33.75 M38.263 29.388C38.185 29.381 38.125 29.316 38.125 29.237 V27.813C38.125 25.396 36.166 23.438 33.75 23.438C31.334 23.438 29.375 25.396 29.375 27.813 V29.225C29.378 29.265 29.366 29.304 29.34 29.335C29.314 29.365 29.277 29.384 29.237 29.387C28.261 29.459 27.504 30.271 27.5 31.25 V38.125C27.5 39.161 28.339 40 29.375 40 H38.125C39.161 40 40 39.161 40 38.125 V31.25C39.996 30.271 39.239 29.459 38.263 29.388 M33.75 36.563C33.06 36.563 32.5 36.003 32.5 35.313C32.5 34.622 33.06 34.063 33.75 34.063C34.44 34.063 35 34.622 35 35.313C35 36.003 34.44 36.563 33.75 36.563 M35.625 29.225C35.62 29.301 35.563 29.363 35.487 29.375 H32.013C31.937 29.363 31.88 29.301 31.875 29.225 V27.813C31.875 26.777 32.714 25.938 33.75 25.938C34.786 25.938 35.625 26.777 35.625 27.813 V29.225"></path></g></g></g><g id="g-root-char_4nkbd7ingvt0-fill" data-item-order="17999999350" transform="translate(356.2565002441406, 156.986328125)"><g id="char_4nkbd7ingvt0-fill-merged" stroke="none" fill="#000000"><g><path d="M20.078 12.846L17.774 10.542C17.428 10.194 16.958 9.999 16.467 10 H11.858C10.834 10.006 10.006 10.834 10 11.858 V21.947C10.006 22.971 10.834 23.8 11.858 23.805 H18.761C19.785 23.8 20.614 22.971 20.62 21.947 V14.152C20.621 13.662 20.426 13.192 20.078 12.846 M19.016 21.947C19.016 22.094 18.897 22.213 18.751 22.213 H11.858C11.712 22.213 11.593 22.094 11.593 21.947 V11.858C11.593 11.712 11.712 11.593 11.858 11.593 H16.467C16.535 11.595 16.599 11.621 16.648 11.667L18.952 13.972C18.998 14.021 19.025 14.085 19.027 14.152 V21.947 M16.903 13.186 H13.451C13.011 13.186 12.655 13.542 12.655 13.982C12.655 14.422 13.011 14.779 13.451 14.779 H16.903C17.343 14.779 17.699 14.422 17.699 13.982C17.699 13.542 17.343 13.186 16.903 13.186 M16.903 16.372 H13.451C13.011 16.372 12.655 16.728 12.655 17.168C12.655 17.608 13.011 17.965 13.451 17.965 H16.903C17.343 17.965 17.699 17.608 17.699 17.168C17.699 16.728 17.343 16.372 16.903 16.372 M15.841 19.558 H13.451C13.011 19.558 12.655 19.914 12.655 20.354C12.655 20.794 13.011 21.151 13.451 21.151 H15.841C16.281 21.151 16.637 20.794 16.637 20.354C16.637 19.914 16.281 19.558 15.841 19.558 M30.846 30.23L32.97 34.478C34.559 33.385 35.502 31.575 35.487 29.646C35.492 29.558 35.492 29.469 35.487 29.381L30.846 30.23 M30.443 28.69L35.19 27.809C34.488 25.696 32.648 24.165 30.443 23.859 V28.69 M28.935 30.007C28.88 29.895 28.851 29.771 28.85 29.646 V23.859C25.624 24.078 23.187 26.872 23.407 30.098C23.627 33.323 26.42 35.76 29.646 35.54C30.3 35.538 30.949 35.43 31.568 35.221L28.935 30.007 M35.391 18.156C33.839 15.748 31.338 14.111 28.51 13.653 V12.124C28.516 11.808 28.338 11.518 28.053 11.381C27.757 11.26 27.416 11.331 27.193 11.561L24.676 14.025C24.366 14.336 24.366 14.84 24.676 15.15L27.151 17.614C27.297 17.768 27.501 17.853 27.713 17.848C27.812 17.868 27.913 17.868 28.011 17.848C28.312 17.724 28.509 17.43 28.51 17.104 V15.82C30.61 16.251 32.448 17.51 33.607 19.313C33.927 19.806 34.585 19.946 35.078 19.627C35.571 19.307 35.711 18.648 35.391 18.156 M21.586 31.112L19.122 28.637C18.894 28.41 18.552 28.342 18.255 28.465C17.957 28.588 17.763 28.878 17.763 29.2 V30.443C15.669 30.023 13.833 28.779 12.666 26.991C12.496 26.613 12.122 26.368 11.708 26.364C11.293 26.359 10.914 26.596 10.737 26.97C10.559 27.345 10.616 27.788 10.881 28.106C12.435 30.511 14.936 32.144 17.763 32.598 V34.138C17.761 34.459 17.954 34.75 18.251 34.871C18.349 34.913 18.454 34.934 18.559 34.935C18.77 34.932 18.972 34.849 19.122 34.701L21.586 32.237C21.738 32.089 21.823 31.886 21.823 31.675C21.823 31.463 21.738 31.26 21.586 31.112"></path></g></g></g><g id="g-root-tx_adaptabi_7qt8ringvt8-fill" data-item-order="18000000000" transform="translate(117, 105)"><g id="tx_adaptabi_7qt8ringvt8-fill-merged" stroke="none" fill="#484848"><g><text style="font-style: normal; font-variant-caps: normal; font-weight: normal; font-width: normal; font-size: 20px; line-height: normal; font-family: Roboto, sans-serif; font-size-adjust: none; font-kerning: auto; font-variant-alternates: normal; font-variant-ligatures: normal; font-variant-numeric: normal; font-variant-east-asian: normal; font-variant-position: normal; font-variant-emoji: normal; font-feature-settings: normal; font-optical-sizing: auto; font-variation-settings: normal; white-space: pre;"><tspan x="12" y="46" dominant-baseline="ideographic">5.2.Validation tests</tspan></text></g></g></g><g id="g-root-tx_planific_7qt8ringvt7-fill" data-item-order="18000000000" transform="translate(531, 81)"><g id="tx_planific_7qt8ringvt7-fill-merged" stroke="none" fill="#484848"><g><text style="font-style: normal; font-variant-caps: normal; font-weight: normal; font-width: normal; font-size: 20px; line-height: normal; font-family: Roboto, sans-serif; font-size-adjust: none; font-kerning: auto; font-variant-alternates: normal; font-variant-ligatures: normal; font-variant-numeric: normal; font-variant-east-asian: normal; font-variant-position: normal; font-variant-emoji: normal; font-feature-settings: normal; font-optical-sizing: auto; font-variation-settings: normal; white-space: pre;"><tspan x="12" y="46" dominant-baseline="ideographic">6.2.Implementation of Model</tspan></text></g></g></g><g id="g-root-cu_7qt8ringvt3-fill" data-item-order="18000000000" transform="translate(357, 87)"></g><g id="g-root-cu_7qt8ringvt4-fill" data-item-order="18000000000" transform="translate(301.5, 87)"></g><g id="g-root-tx_identifi_4nkbd7ingvt2-fill" data-item-order="18000000000" transform="translate(580.0526733398438, 141)"><g id="tx_identifi_4nkbd7ingvt2-fill-merged" stroke="none" fill="#000000"><g><text style="font-style: normal; font-variant-caps: normal; font-weight: bold; font-width: normal; font-size: 20px; line-height: normal; font-family: Roboto, sans-serif; font-size-adjust: none; font-kerning: auto; font-variant-alternates: normal; font-variant-ligatures: normal; font-variant-numeric: normal; font-variant-east-asian: normal; font-variant-position: normal; font-variant-emoji: normal; font-feature-settings: normal; font-optical-sizing: auto; font-variation-settings: normal; white-space: pre;"><tspan x="50.43" y="34" dominant-baseline="ideographic">2.Identification of </tspan><tspan x="30.43" y="58" dominant-baseline="ideographic">essential components</tspan></text></g></g></g><g id="g-root-tx_efectivi_7qt8ringvt2-fill" data-item-order="18000000000" transform="translate(117, 81)"><g id="tx_efectivi_7qt8ringvt2-fill-merged" stroke="none" fill="#484848"><g><text style="font-style: normal; font-variant-caps: normal; font-weight: normal; font-width: normal; font-size: 20px; line-height: normal; font-family: Roboto, sans-serif; font-size-adjust: none; font-kerning: auto; font-variant-alternates: normal; font-variant-ligatures: normal; font-variant-numeric: normal; font-variant-east-asian: normal; font-variant-position: normal; font-variant-emoji: normal; font-feature-settings: normal; font-optical-sizing: auto; font-variation-settings: normal; white-space: pre;"><tspan x="12" y="46" dominant-baseline="ideographic">5.1.Evaluation criteria</tspan></text></g></g></g><g id="g-root-tx_4nkbd7ingvt7-fill" data-item-order="18000000000" transform="translate(339.368408203125, 175.158203125)"><g id="tx_4nkbd7ingvt7-fill-merged" stroke="none" fill="#000000"><g><text style="font-style: normal; font-variant-caps: normal; font-weight: normal; font-width: normal; font-size: 11.7px; line-height: normal; font-family: Roboto, sans-serif; font-size-adjust: none; font-kerning: auto; font-variant-alternates: normal; font-variant-ligatures: normal; font-variant-numeric: normal; font-variant-east-asian: normal; font-variant-position: normal; font-variant-emoji: normal; font-feature-settings: normal; font-optical-sizing: auto; font-variation-settings: normal; white-space: pre;"><tspan x="12.36" y="29" dominant-baseline="ideographic">Processes</tspan></text></g></g></g><g id="g-root-tx_4nkbd7ingvt8-fill" data-item-order="18000000000" transform="translate(432.6842041015625, 171.52734375)"><g id="tx_4nkbd7ingvt8-fill-merged" stroke="none" fill="#000000"><g><text style="font-style: normal; font-variant-caps: normal; font-weight: normal; font-width: normal; font-size: 11.7px; line-height: normal; font-family: Roboto, sans-serif; font-size-adjust: none; font-kerning: auto; font-variant-alternates: normal; font-variant-ligatures: normal; font-variant-numeric: normal; font-variant-east-asian: normal; font-variant-position: normal; font-variant-emoji: normal; font-feature-settings: normal; font-optical-sizing: auto; font-variation-settings: normal; white-space: pre;"><tspan x="17.13" y="29" dominant-baseline="ideographic">Technologies</tspan></text></g></g></g><g id="g-root-tx_actualiz_meubuzingvt6-fill" data-item-order="18000000000" transform="translate(567.0526123046875, 405)"><g id="tx_actualiz_meubuzingvt6-fill-merged" stroke="none" fill="#484848"><g><text style="font-style: normal; font-variant-caps: normal; font-weight: normal; font-width: normal; font-size: 20px; line-height: normal; font-family: Roboto, sans-serif; font-size-adjust: none; font-kerning: auto; font-variant-alternates: normal; font-variant-ligatures: normal; font-variant-numeric: normal; font-variant-east-asian: normal; font-variant-position: normal; font-variant-emoji: normal; font-feature-settings: normal; font-optical-sizing: auto; font-variation-settings: normal; white-space: pre;"><tspan x="14.42" y="34" dominant-baseline="ideographic">4.1.Adaptation to challenges</tspan></text></g></g></g><g id="g-root-tx_definici_4nkbd7ingvt6-fill" data-item-order="18000000000" transform="translate(9, 195)"><g id="tx_definici_4nkbd7ingvt6-fill-merged" stroke="none" fill="#000000"><g><text style="font-style: normal; font-variant-caps: normal; font-weight: bold; font-width: normal; font-size: 20px; line-height: normal; font-family: Roboto, sans-serif; font-size-adjust: none; font-kerning: auto; font-variant-alternates: normal; font-variant-ligatures: normal; font-variant-numeric: normal; font-variant-east-asian: normal; font-variant-position: normal; font-variant-emoji: normal; font-feature-settings: normal; font-optical-sizing: auto; font-variation-settings: normal; white-space: pre;"><tspan x="13.11" y="34" dominant-baseline="ideographic">1.Define objectives and scope</tspan></text></g></g></g><g id="g-root-tx_anlisisd_7qt8ringvt1-fill" data-item-order="18000000000" transform="translate(531, 57)"><g id="tx_anlisisd_7qt8ringvt1-fill-merged" stroke="none" fill="#484848"><g><text style="font-style: normal; font-variant-caps: normal; font-weight: normal; font-width: normal; font-size: 20px; line-height: normal; font-family: Roboto, sans-serif; font-size-adjust: none; font-kerning: auto; font-variant-alternates: normal; font-variant-ligatures: normal; font-variant-numeric: normal; font-variant-east-asian: normal; font-variant-position: normal; font-variant-emoji: normal; font-feature-settings: normal; font-optical-sizing: auto; font-variation-settings: normal; white-space: pre;"><tspan x="12" y="46" dominant-baseline="ideographic">6.1.Adaptation of Model</tspan></text></g></g></g><g id="g-root-tx_colabora_meubuzingvt7-fill" data-item-order="18000000000" transform="translate(568.2105102539062, 417)"><g id="tx_colabora_meubuzingvt7-fill-merged" stroke="none" fill="#484848"><g><text style="font-style: normal; font-variant-caps: normal; font-weight: normal; font-width: normal; font-size: 20px; line-height: normal; font-family: Roboto, sans-serif; font-size-adjust: none; font-kerning: auto; font-variant-alternates: normal; font-variant-ligatures: normal; font-variant-numeric: normal; font-variant-east-asian: normal; font-variant-position: normal; font-variant-emoji: normal; font-feature-settings: normal; font-optical-sizing: auto; font-variation-settings: normal; white-space: pre;"><tspan x="12" y="46" dominant-baseline="ideographic">4.2.Resistance to quantum cyberattacks</tspan></text></g></g></g><g id="g-root-cu_93dthningvsx-fill" data-item-order="18000000000" transform="translate(557.21044921875, 195)"></g><g id="g-root-cu_93dthningvsy-fill" data-item-order="18000000000" transform="translate(558.4763793945312, 195)"></g><g id="g-root-cu_93dthningvsz-fill" data-item-order="18000000000" transform="translate(559.029052734375, 195)"></g><g id="g-root-cu_93dthningvt2-fill" data-item-order="18000000000" transform="translate(559.1288452148438, 195)"></g><g id="g-root-cu_93dthningvt3-fill" data-item-order="18000000000" transform="translate(559.1288452148438, 195)"></g><g id="g-root-cu_93dthningvt4-fill" data-item-order="18000000000" transform="translate(559.1288452148438, 195)"></g><g id="g-root-cu_7qt8ringvsy-fill" data-item-order="18000000000" transform="translate(509, 66)"></g><g id="g-root-cu_7qt8ringvt0-fill" data-item-order="18000000000" transform="translate(509, 66)"></g><g id="g-root-tx_polticas_4nkbd7ingvta-fill" data-item-order="18000000000" transform="translate(585, 195)"><g id="tx_polticas_4nkbd7ingvta-fill-merged" stroke="none" fill="#484848"><g><text style="font-style: normal; font-variant-caps: normal; font-weight: normal; font-width: normal; font-size: 20px; line-height: normal; font-family: Roboto, sans-serif; font-size-adjust: none; font-kerning: auto; font-variant-alternates: normal; font-variant-ligatures: normal; font-variant-numeric: normal; font-variant-east-asian: normal; font-variant-position: normal; font-variant-emoji: normal; font-feature-settings: normal; font-optical-sizing: auto; font-variation-settings: normal; white-space: pre;"><tspan x="12" y="34" dominant-baseline="ideographic">2.1.Security policies</tspan></text></g></g></g><g id="g-root-cu_dj7bm3ingvsx-fill" data-item-order="18000000000" transform="translate(203.1842041015625, 237)"></g><g id="g-root-cu_dj7bm3ingvsy-fill" data-item-order="18000000000" transform="translate(253.6153564453125, 237)"></g><g id="g-root-tx_polticas_93dthningvta-fill" data-item-order="18000000000" transform="translate(584.2105102539062, 221.4208984375)"><g id="tx_polticas_93dthningvta-fill-merged" stroke="none" fill="#484848"><g><text style="font-style: normal; font-variant-caps: normal; font-weight: normal; font-width: normal; font-size: 20px; line-height: normal; font-family: Roboto, sans-serif; font-size-adjust: none; font-kerning: auto; font-variant-alternates: normal; font-variant-ligatures: normal; font-variant-numeric: normal; font-variant-east-asian: normal; font-variant-position: normal; font-variant-emoji: normal; font-feature-settings: normal; font-optical-sizing: auto; font-variation-settings: normal; white-space: pre;"><tspan x="12" y="46" dominant-baseline="ideographic">2.3.Incident detection and response</tspan></text></g></g></g><g id="g-root-tx_polticas_93dthningvtb-fill" data-item-order="18000000000" transform="translate(584.7251586914062, 213)"><g id="tx_polticas_93dthningvtb-fill-merged" stroke="none" fill="#484848"><g><text style="font-style: normal; font-variant-caps: normal; font-weight: normal; font-width: normal; font-size: 20px; line-height: normal; font-family: Roboto, sans-serif; font-size-adjust: none; font-kerning: auto; font-variant-alternates: normal; font-variant-ligatures: normal; font-variant-numeric: normal; font-variant-east-asian: normal; font-variant-position: normal; font-variant-emoji: normal; font-feature-settings: normal; font-optical-sizing: auto; font-variation-settings: normal; white-space: pre;"><tspan x="12" y="34" dominant-baseline="ideographic">2.2.Access controls</tspan></text></g></g></g><g id="g-root-tx_proteger_dj7bm3ingvsw-fill" data-item-order="18000000000" transform="translate(8.999984741210938, 237)"><g id="tx_proteger_dj7bm3ingvsw-fill-merged" stroke="none" fill="#484848"><g><text style="font-style: normal; font-variant-caps: normal; font-weight: normal; font-width: normal; font-size: 20px; line-height: normal; font-family: Roboto, sans-serif; font-size-adjust: none; font-kerning: auto; font-variant-alternates: normal; font-variant-ligatures: normal; font-variant-numeric: normal; font-variant-east-asian: normal; font-variant-position: normal; font-variant-emoji: normal; font-feature-settings: normal; font-optical-sizing: auto; font-variation-settings: normal; white-space: pre;"><tspan x="25.08" y="46" dominant-baseline="ideographic">1.1.Objectives of Model</tspan></text></g></g></g><g id="g-root-tx_polticas_dj7bm3ingvt2-fill" data-item-order="18000000000" transform="translate(584.2921752929688, 243.052734375)"><g id="tx_polticas_dj7bm3ingvt2-fill-merged" stroke="none" fill="#484848"><g><text style="font-style: normal; font-variant-caps: normal; font-weight: normal; font-width: normal; font-size: 20px; line-height: normal; font-family: Roboto, sans-serif; font-size-adjust: none; font-kerning: auto; font-variant-alternates: normal; font-variant-ligatures: normal; font-variant-numeric: normal; font-variant-east-asian: normal; font-variant-position: normal; font-variant-emoji: normal; font-feature-settings: normal; font-optical-sizing: auto; font-variation-settings: normal; white-space: pre;"><tspan x="12" y="46" dominant-baseline="ideographic">2.4.Risk management</tspan></text></g></g></g><g id="g-root-tx_mitigarr_dj7bm3ingvt3-fill" data-item-order="18000000000" transform="translate(18.6842041015625, 270)"><g id="tx_mitigarr_dj7bm3ingvt3-fill-merged" stroke="none" fill="#484848"><g><text style="font-style: normal; font-variant-caps: normal; font-weight: normal; font-width: normal; font-size: 20px; line-height: normal; font-family: Roboto, sans-serif; font-size-adjust: none; font-kerning: auto; font-variant-alternates: normal; font-variant-ligatures: normal; font-variant-numeric: normal; font-variant-east-asian: normal; font-variant-position: normal; font-variant-emoji: normal; font-feature-settings: normal; font-optical-sizing: auto; font-variation-settings: normal; white-space: pre;"><tspan x="13.37" y="34" dominant-baseline="ideographic">1.2.Scope of Model</tspan></text></g></g></g><g id="g-root-tx_modelode_dj7bm3ingvt7-fill" data-item-order="18000000000" transform="translate(381, 273)"><g id="tx_modelode_dj7bm3ingvt7-fill-merged" stroke="none" fill="#000000"><g><text style="font-style: normal; font-variant-caps: normal; font-weight: bold; font-width: normal; font-size: 20px; line-height: normal; font-family: Roboto, sans-serif; font-size-adjust: none; font-kerning: auto; font-variant-alternates: normal; font-variant-ligatures: normal; font-variant-numeric: normal; font-variant-east-asian: normal; font-variant-position: normal; font-variant-emoji: normal; font-feature-settings: normal; font-optical-sizing: auto; font-variation-settings: normal; white-space: pre;"><tspan x="18.59" y="34" dominant-baseline="ideographic">MoRCiTO </tspan><tspan x="15.59" y="58" dominant-baseline="ideographic">Reference </tspan><tspan x="32.59" y="82" dominant-baseline="ideographic">Model</tspan></text></g></g></g><g id="g-root-tx_polticas_dj7bm3ingvt9-fill" data-item-order="18000000000" transform="translate(583.0526123046875, 261)"><g id="tx_polticas_dj7bm3ingvt9-fill-merged" stroke="none" fill="#484848"><g><text style="font-style: normal; font-variant-caps: normal; font-weight: normal; font-width: normal; font-size: 20px; line-height: normal; font-family: Roboto, sans-serif; font-size-adjust: none; font-kerning: auto; font-variant-alternates: normal; font-variant-ligatures: normal; font-variant-numeric: normal; font-variant-east-asian: normal; font-variant-position: normal; font-variant-emoji: normal; font-feature-settings: normal; font-optical-sizing: auto; font-variation-settings: normal; white-space: pre;"><tspan x="12" y="52" dominant-baseline="ideographic">2.5.Encryption and communication security</tspan></text></g></g></g><g id="g-root-tx_controle_hz0tqjingvsw-fill" data-item-order="18000000000" transform="translate(581.842041015625, 288.630859375)"><g id="tx_controle_hz0tqjingvsw-fill-merged" stroke="none" fill="#484848"><g><text style="font-style: normal; font-variant-caps: normal; font-weight: normal; font-width: normal; font-size: 20px; line-height: normal; font-family: Roboto, sans-serif; font-size-adjust: none; font-kerning: auto; font-variant-alternates: normal; font-variant-ligatures: normal; font-variant-numeric: normal; font-variant-east-asian: normal; font-variant-position: normal; font-variant-emoji: normal; font-feature-settings: normal; font-optical-sizing: auto; font-variation-settings: normal; white-space: pre;"><tspan x="12" y="46" dominant-baseline="ideographic">2.6.Updates and patches</tspan></text></g></g></g><g id="g-root-tx_adaptabi_meubuzingvt8-fill" data-item-order="18000000000" transform="translate(177, 435.8154296875)"><g id="tx_adaptabi_meubuzingvt8-fill-merged" stroke="none" fill="#484848"><g><text style="font-style: normal; font-variant-caps: normal; font-weight: normal; font-width: normal; font-size: 20px; line-height: normal; font-family: Roboto, sans-serif; font-size-adjust: none; font-kerning: auto; font-variant-alternates: normal; font-variant-ligatures: normal; font-variant-numeric: normal; font-variant-east-asian: normal; font-variant-position: normal; font-variant-emoji: normal; font-feature-settings: normal; font-optical-sizing: auto; font-variation-settings: normal; white-space: pre;"><tspan x="12" y="34" dominant-baseline="ideographic">3.2.Approaches</tspan></text></g></g></g><g id="g-root-tx_establec_hz0tqjingvt3-fill" data-item-order="18000000000" transform="translate(9, 346.5)"><g id="tx_establec_hz0tqjingvt3-fill-merged" stroke="none" fill="#000000"><g><text style="font-style: normal; font-variant-caps: normal; font-weight: bold; font-width: normal; font-size: 20px; line-height: normal; font-family: Roboto, sans-serif; font-size-adjust: none; font-kerning: auto; font-variant-alternates: normal; font-variant-ligatures: normal; font-variant-numeric: normal; font-variant-east-asian: normal; font-variant-position: normal; font-variant-emoji: normal; font-feature-settings: normal; font-optical-sizing: auto; font-variation-settings: normal; white-space: pre;"><tspan x="13.5" y="34" dominant-baseline="ideographic">3.Establishment of principles and </tspan><tspan x="111.5" y="58" dominant-baseline="ideographic">approaches</tspan></text></g></g></g><g id="g-root-tx_adaptaci_hz0tqjingvt5-fill" data-item-order="18000000000" transform="translate(560.4210205078125, 342)"><g id="tx_adaptaci_hz0tqjingvt5-fill-merged" stroke="none" fill="#000000"><g><text style="font-style: normal; font-variant-caps: normal; font-weight: bold; font-width: normal; font-size: 20px; line-height: normal; font-family: Roboto, sans-serif; font-size-adjust: none; font-kerning: auto; font-variant-alternates: normal; font-variant-ligatures: normal; font-variant-numeric: normal; font-variant-east-asian: normal; font-variant-position: normal; font-variant-emoji: normal; font-feature-settings: normal; font-optical-sizing: auto; font-variation-settings: normal; white-space: pre;"><tspan x="15.66" y="34" dominant-baseline="ideographic">4.Adaptation to quantum </tspan><tspan x="78.66" y="58" dominant-baseline="ideographic">challenges</tspan></text></g></g></g><g id="g-root-tx_evaluaci_1ut1d3fingvm1-fill" data-item-order="18000000000" transform="translate(116.15792846679688, 9)"><g id="tx_evaluaci_1ut1d3fingvm1-fill-merged" stroke="none" fill="#000000"><g><text style="font-style: normal; font-variant-caps: normal; font-weight: bold; font-width: normal; font-size: 20px; line-height: normal; font-family: Roboto, sans-serif; font-size-adjust: none; font-kerning: auto; font-variant-alternates: normal; font-variant-ligatures: normal; font-variant-numeric: normal; font-variant-east-asian: normal; font-variant-position: normal; font-variant-emoji: normal; font-feature-settings: normal; font-optical-sizing: auto; font-variation-settings: normal; white-space: pre;"><tspan x="12.57" y="46" dominant-baseline="ideographic">5.Evaluation criteria and </tspan><tspan x="52.57" y="70" dominant-baseline="ideographic">validation tests</tspan></text></g></g></g><g id="g-root-tx_mecanism_1ut1d3fingvm5-fill" data-item-order="18000000000" transform="translate(527, 12)"><g id="tx_mecanism_1ut1d3fingvm5-fill-merged" stroke="none" fill="#000000"><g><text style="font-style: normal; font-variant-caps: normal; font-weight: bold; font-width: normal; font-size: 20px; line-height: normal; font-family: Roboto, sans-serif; font-size-adjust: none; font-kerning: auto; font-variant-alternates: normal; font-variant-ligatures: normal; font-variant-numeric: normal; font-variant-east-asian: normal; font-variant-position: normal; font-variant-emoji: normal; font-feature-settings: normal; font-optical-sizing: auto; font-variation-settings: normal; white-space: pre;"><tspan x="13.5" y="34" dominant-baseline="ideographic">6.Adaptation and implementation </tspan><tspan x="106.5" y="58" dominant-baseline="ideographic">mechanisms</tspan></text></g></g></g><g id="g-root-cu_meubuzingvsy-fill" data-item-order="18000000000" transform="translate(315.5999755859375, 400.5)"></g><g id="g-root-cu_meubuzingvsx-fill" data-item-order="18000000000" transform="translate(327.5454406738281, 400.5)"></g><g id="g-root-cu_meubuzingvt2-fill" data-item-order="18000000000" transform="translate(537.6209716796875, 396)"></g><g id="g-root-cu_meubuzingvt0-fill" data-item-order="18000000000" transform="translate(537.6209716796875, 396)"></g><g id="g-root-tx_integral_meubuzingvsw-fill" data-item-order="18000000000" transform="translate(177, 409.5)"><g id="tx_integral_meubuzingvsw-fill-merged" stroke="none" fill="#484848"><g><text style="font-style: normal; font-variant-caps: normal; font-weight: normal; font-width: normal; font-size: 20px; line-height: normal; font-family: Roboto, sans-serif; font-size-adjust: none; font-kerning: auto; font-variant-alternates: normal; font-variant-ligatures: normal; font-variant-numeric: normal; font-variant-east-asian: normal; font-variant-position: normal; font-variant-emoji: normal; font-feature-settings: normal; font-optical-sizing: auto; font-variation-settings: normal; white-space: pre;"><tspan x="12" y="34" dominant-baseline="ideographic">3.1.Principles</tspan></text></g></g></g><g id="g-root-tx_meubuzingvt4-fill" data-item-order="18000000000" transform="translate(417, 410.947265625)"><g id="tx_meubuzingvt4-fill-merged" stroke="none" fill="#000000"><g><text style="font-style: normal; font-variant-caps: normal; font-weight: normal; font-width: normal; font-size: 11.7px; line-height: normal; font-family: Roboto, sans-serif; font-size-adjust: none; font-kerning: auto; font-variant-alternates: normal; font-variant-ligatures: normal; font-variant-numeric: normal; font-variant-east-asian: normal; font-variant-position: normal; font-variant-emoji: normal; font-feature-settings: normal; font-optical-sizing: auto; font-variation-settings: normal; white-space: pre;"><tspan x="16.05" y="29" dominant-baseline="ideographic">People</tspan></text></g></g></g><g id="g-root-cu_4nkbd7ingvt4-fill" data-item-order="18000000002" transform="translate(495, 165)"></g><g id="g-root-cu_4nkbd7ingvtb-fill" data-item-order="18000000002" transform="translate(327, 207)"></g><g id="g-root-cu_hz0tqjingvsx-fill" data-item-order="18000000002" transform="translate(318.6842041015625, 303.7890625)"></g><g id="g-root-cu_hz0tqjingvsz-fill" data-item-order="18000000002" transform="translate(495, 309)"></g><g id="g-root-cu_7qt8ringvsw-fill" data-item-order="18000000002" transform="translate(435, 36)"></g><g id="g-root-cu_1ut1d3fingvm6-fill" data-item-order="18000000002" transform="translate(392.1579284667969, 45)"></g><g id="g-root-ro_1ut1d3fingvm0-stroke" data-item-order="17999975808" transform="translate(104.15792846679688, 3)"><g id="ro_1ut1d3fingvm0-stroke" fill="none" stroke-linecap="round" stroke-linejoin="round" stroke-miterlimit="4" stroke="#92bd39" stroke-width="2"><g><path d="M 16 10L 292 10C 292 10 298 10 298 16L 298 88C 298 88 298 94 292 94L 16 94C 16 94 10 94 10 88L 10 16C 10 16 10 10 16 10"></path></g></g></g><g id="g-root-ro_1ut1d3fingvm2-stroke" data-item-order="17999978400" transform="translate(485, 6)"><g id="ro_1ut1d3fingvm2-stroke" fill="none" stroke-linecap="round" stroke-linejoin="round" stroke-miterlimit="4" stroke="#ba5de5" stroke-width="2"><g><path d="M 16 10L 364 10C 364 10 370 10 370 16L 370 64C 370 64 370 70 364 70L 16 70C 16 70 10 70 10 64L 10 16C 10 16 10 10 16 10"></path></g></g></g><g id="g-root-ro_hz0tqjingvt2-stroke" data-item-order="17999978400" transform="translate(3, 340.5)"><g id="ro_hz0tqjingvt2-stroke" fill="none" stroke-linecap="round" stroke-linejoin="round" stroke-miterlimit="4" stroke="#3cc583" stroke-width="2"><g><path d="M 16 10L 364 10C 364 10 370 10 370 16L 370 64C 370 64 370 70 364 70L 16 70C 16 70 10 70 10 64L 10 16C 10 16 10 10 16 10"></path></g></g></g><g id="g-root-ro_4nkbd7ingvsz-stroke" data-item-order="17999979512" transform="translate(535.5789184570312, 135)"><g id="ro_4nkbd7ingvsz-stroke" fill="none" stroke-linecap="round" stroke-linejoin="round" stroke-miterlimit="4" stroke="#de8431" stroke-width="2"><g><path d="M 16 10L 345.47 10C 345.47 10 351.47 10 351.47 16L 351.47 64C 351.47 64 351.47 70 345.47 70L 16 70C 16 70 10 70 10 64L 10 16C 10 16 10 10 16 10"></path></g></g></g><g id="g-root-ro_4nkbd7ingvt3-stroke" data-item-order="17999980560" transform="translate(3, 177)"><g id="ro_4nkbd7ingvt3-stroke" fill="none" stroke-linecap="round" stroke-linejoin="round" stroke-miterlimit="4" stroke="#4e88e7" stroke-width="2"><g><path d="M 16 10L 328 10C 328 10 334 10 334 16L 334 64C 334 64 334 70 328 70L 16 70C 16 70 10 70 10 64L 10 16C 10 16 10 10 16 10"></path></g></g></g><g id="g-root-ro_hz0tqjingvt4-stroke" data-item-order="17999982720" transform="translate(518.4210205078125, 336)"><g id="ro_hz0tqjingvt4-stroke" fill="none" stroke-linecap="round" stroke-linejoin="round" stroke-miterlimit="4" stroke="#7f64ea" stroke-width="2"><g><path d="M 15.998979 10L 291.998979 10C 291.998979 10 297.998979 10 297.998979 16L 297.998979 64C 297.998979 64 297.998979 70 291.998979 70L 15.998979 70C 15.998979 70 9.998979 70 9.998979 64L 9.998979 16C 9.998979 16 9.998979 10 15.998979 10"></path></g></g></g><g id="g-root-ro_93dthningvt5-stroke" data-item-order="17999983440" transform="translate(375, 213)"><g id="ro_93dthningvt5-stroke" fill="none" stroke-linecap="round" stroke-linejoin="round" stroke-miterlimit="4" stroke="#fd6a65" stroke-width="2"><g><path d="M 16 10L 124 10C 124 10 130 10 130 16L 130 142C 130 142 130 148 124 148L 16 148C 16 148 10 148 10 142L 10 16C 10 16 10 10 16 10"></path></g></g></g><g id="g-root-cr_hz0tqjingvta-stroke" data-item-order="17999996400" transform="translate(411, 381)"></g><g id="g-root-cr_4nkbd7ingvsx-stroke" data-item-order="17999996400" transform="translate(444.6842041015625, 141.5791015625)"></g><g id="g-root-cr_4nkbd7ingvsw-stroke" data-item-order="17999996400" transform="translate(339.368408203125, 145.2109375)"></g><g id="g-root-id-2_hz0tqjingvtb-stroke" data-item-order="17999997696" transform="translate(417, 356.947265625)"></g><g id="g-root-micr_93dthningvt6-stroke" data-item-order="17999997696" transform="translate(411, 219)"></g><g id="g-root-id-2_4nkbd7ingvsy-stroke" data-item-order="17999997696" transform="translate(450.6842041015625, 117.52734375)"></g><g id="g-root-moni_1ut1d3fingvm4-stroke" data-item-order="17999999100" transform="translate(491, 21)"></g><g id="g-root-secu_hz0tqjingvt7-stroke" data-item-order="17999999100" transform="translate(524.4210205078125, 351)"></g><g id="g-root-corr_1ut1d3fingvm3-stroke" data-item-order="17999999100" transform="translate(350.1579284667969, 30)"></g><g id="g-root-floa_hz0tqjingvt6-stroke" data-item-order="17999999100" transform="translate(327, 355.5)"></g><g id="g-root-aim_4nkbd7ingvt9-stroke" data-item-order="17999999100" transform="translate(291, 192)"></g><g id="g-root-lock_4nkbd7ingvt1-stroke" data-item-order="17999999100" transform="translate(544.0526733398438, 150)"></g><g id="g-root-char_4nkbd7ingvt0-stroke" data-item-order="17999999350" transform="translate(356.2565002441406, 156.986328125)"></g><g id="g-root-tx_adaptabi_7qt8ringvt8-stroke" data-item-order="18000000000" transform="translate(117, 105)"></g><g id="g-root-tx_planific_7qt8ringvt7-stroke" data-item-order="18000000000" transform="translate(531, 81)"></g><g id="g-root-cu_7qt8ringvt3-stroke" data-item-order="18000000000" transform="translate(357, 87)"><g id="cu_7qt8ringvt3-stroke" fill="none" stroke-linecap="round" stroke-linejoin="round" stroke-miterlimit="4" stroke="#a3a3a3" stroke-width="2" stroke-dasharray="5.0, 7.0"><g><path d="M 20.1 10L 20.1 19L 20.1 28L 15.1 28L 10 28"></path></g></g></g><g id="g-root-cu_7qt8ringvt4-stroke" data-item-order="18000000000" transform="translate(301.5, 87)"><g id="cu_7qt8ringvt4-stroke" fill="none" stroke-linecap="round" stroke-linejoin="round" stroke-miterlimit="4" stroke="#a3a3a3" stroke-width="2" stroke-dasharray="5.0, 7.0"><g><path d="M 75.6 10L 75.6 15.3L 75.6 40C 75.600002 46.627416 70.227419 51.999999 63.600002 52L 63.5 52L 10 52"></path></g></g></g><g id="g-root-tx_identifi_4nkbd7ingvt2-stroke" data-item-order="18000000000" transform="translate(580.0526733398438, 141)"></g><g id="g-root-tx_efectivi_7qt8ringvt2-stroke" data-item-order="18000000000" transform="translate(117, 81)"></g><g id="g-root-tx_4nkbd7ingvt7-stroke" data-item-order="18000000000" transform="translate(339.368408203125, 175.158203125)"></g><g id="g-root-tx_4nkbd7ingvt8-stroke" data-item-order="18000000000" transform="translate(432.6842041015625, 171.52734375)"></g><g id="g-root-tx_actualiz_meubuzingvt6-stroke" data-item-order="18000000000" transform="translate(567.0526123046875, 405)"></g><g id="g-root-tx_definici_4nkbd7ingvt6-stroke" data-item-order="18000000000" transform="translate(9, 195)"></g><g id="g-root-tx_anlisisd_7qt8ringvt1-stroke" data-item-order="18000000000" transform="translate(531, 57)"></g><g id="g-root-tx_colabora_meubuzingvt7-stroke" data-item-order="18000000000" transform="translate(568.2105102539062, 417)"></g><g id="g-root-cu_93dthningvsx-stroke" data-item-order="18000000000" transform="translate(557.21044921875, 195)"><g id="cu_93dthningvsx-stroke" fill="none" stroke-linecap="round" stroke-linejoin="round" stroke-miterlimit="4" stroke="#a3a3a3" stroke-width="2" stroke-dasharray="5.0, 7.0"><g><path d="M 11.9 10L 11.9 17.4L 11.9 57.4C 11.915402 59.202451 11.848391 61.212764 11.700001 63.399999L 11 69.4L 10.2 75.4C 10.05161 77.587234 9.9846 79.597546 10.000001 81.399998L 10 81.5L 10 115.6C 10.000002 122.227414 15.372585 127.599997 22.000002 127.599997L 22.1 127.6L 25.6 127.6"></path></g></g></g><g id="g-root-cu_93dthningvsy-stroke" data-item-order="18000000000" transform="translate(558.4763793945312, 195)"><g id="cu_93dthningvsy-stroke" fill="none" stroke-linecap="round" stroke-linejoin="round" stroke-miterlimit="4" stroke="#a3a3a3" stroke-width="2" stroke-dasharray="5.0, 7.0"><g><path d="M 10.7 10L 10.7 36.2L 10.7 62.3L 10.3 62.3L 10 62.3L 10 84.2L 10 106L 19.4 106L 28.8 106"></path></g></g></g><g id="g-root-cu_93dthningvsz-stroke" data-item-order="18000000000" transform="translate(559.029052734375, 195)"><g id="cu_93dthningvsz-stroke" fill="none" stroke-linecap="round" stroke-linejoin="round" stroke-miterlimit="4" stroke="#a3a3a3" stroke-width="2" stroke-dasharray="5.0, 7.0"><g><path d="M 10.1 10L 10.1 27.2L 10.1 44.4L 10 44.4L 10 44.4L 10 63.2L 10 82.1L 19.6 82.1L 29.3 82.1"></path></g></g></g><g id="g-root-cu_93dthningvt2-stroke" data-item-order="18000000000" transform="translate(559.1288452148438, 195)"><g id="cu_93dthningvt2-stroke" fill="none" stroke-linecap="round" stroke-linejoin="round" stroke-miterlimit="4" stroke="#a3a3a3" stroke-width="2" stroke-dasharray="5.0, 7.0"><g><path d="M 10 10L 10 16L 10 22L 20.5 22L 31.1 22"></path></g></g></g><g id="g-root-cu_93dthningvt3-stroke" data-item-order="18000000000" transform="translate(559.1288452148438, 195)"><g id="cu_93dthningvt3-stroke" fill="none" stroke-linecap="round" stroke-linejoin="round" stroke-miterlimit="4" stroke="#a3a3a3" stroke-width="2" stroke-dasharray="5.0, 7.0"><g><path d="M 10 10L 10 25L 10 40L 20.4 40L 30.9 40"></path></g></g></g><g id="g-root-cu_93dthningvt4-stroke" data-item-order="18000000000" transform="translate(559.1288452148438, 195)"><g id="cu_93dthningvt4-stroke" fill="none" stroke-linecap="round" stroke-linejoin="round" stroke-miterlimit="4" stroke="#a3a3a3" stroke-width="2" stroke-dasharray="5.0, 7.0"><g><path d="M 10 10L 10 35.2L 10 60.4L 19.8 60.4L 29.7 60.4"></path></g></g></g><g id="g-root-cu_7qt8ringvsy-stroke" data-item-order="18000000000" transform="translate(509, 66)"><g id="cu_7qt8ringvsy-stroke" fill="none" stroke-linecap="round" stroke-linejoin="round" stroke-miterlimit="4" stroke="#a3a3a3" stroke-width="2" stroke-dasharray="5.0, 7.0"><g><path d="M 10 10L 10 14.9L 10 40C 10 44.970564 14.029437 49.000001 19 49.000001L 19.1 49L 20.4 49"></path></g></g></g><g id="g-root-cu_7qt8ringvt0-stroke" data-item-order="18000000000" transform="translate(509, 66)"><g id="cu_7qt8ringvt0-stroke" fill="none" stroke-linecap="round" stroke-linejoin="round" stroke-miterlimit="4" stroke="#a3a3a3" stroke-width="2" stroke-dasharray="5.0, 7.0"><g><path d="M 10 10L 10 17.5L 10 25L 16.6 25L 23.2 25"></path></g></g></g><g id="g-root-tx_polticas_4nkbd7ingvta-stroke" data-item-order="18000000000" transform="translate(585, 195)"></g><g id="g-root-cu_dj7bm3ingvsx-stroke" data-item-order="18000000000" transform="translate(203.1842041015625, 237)"><g id="cu_dj7bm3ingvsx-stroke" fill="none" stroke-linecap="round" stroke-linejoin="round" stroke-miterlimit="4" stroke="#a3a3a3" stroke-width="2" stroke-dasharray="5.0, 7.0"><g><path d="M 105.6 10L 105.6 32.5L 105.6 55L 57.8 55L 10 55"></path></g></g></g><g id="g-root-cu_dj7bm3ingvsy-stroke" data-item-order="18000000000" transform="translate(253.6153564453125, 237)"><g id="cu_dj7bm3ingvsy-stroke" fill="none" stroke-linecap="round" stroke-linejoin="round" stroke-miterlimit="4" stroke="#a3a3a3" stroke-width="2" stroke-dasharray="5.0, 7.0"><g><path d="M 55.2 10L 55.2 22L 55.2 34L 32.6 34L 10 34"></path></g></g></g><g id="g-root-tx_polticas_93dthningvta-stroke" data-item-order="18000000000" transform="translate(584.2105102539062, 221.4208984375)"></g><g id="g-root-tx_polticas_93dthningvtb-stroke" data-item-order="18000000000" transform="translate(584.7251586914062, 213)"></g><g id="g-root-tx_proteger_dj7bm3ingvsw-stroke" data-item-order="18000000000" transform="translate(8.999984741210938, 237)"></g><g id="g-root-tx_polticas_dj7bm3ingvt2-stroke" data-item-order="18000000000" transform="translate(584.2921752929688, 243.052734375)"></g><g id="g-root-tx_mitigarr_dj7bm3ingvt3-stroke" data-item-order="18000000000" transform="translate(18.6842041015625, 270)"></g><g id="g-root-tx_modelode_dj7bm3ingvt7-stroke" data-item-order="18000000000" transform="translate(381, 273)"></g><g id="g-root-tx_polticas_dj7bm3ingvt9-stroke" data-item-order="18000000000" transform="translate(583.0526123046875, 261)"></g><g id="g-root-tx_controle_hz0tqjingvsw-stroke" data-item-order="18000000000" transform="translate(581.842041015625, 288.630859375)"></g><g id="g-root-tx_adaptabi_meubuzingvt8-stroke" data-item-order="18000000000" transform="translate(177, 435.8154296875)"></g><g id="g-root-tx_establec_hz0tqjingvt3-stroke" data-item-order="18000000000" transform="translate(9, 346.5)"></g><g id="g-root-tx_adaptaci_hz0tqjingvt5-stroke" data-item-order="18000000000" transform="translate(560.4210205078125, 342)"></g><g id="g-root-tx_evaluaci_1ut1d3fingvm1-stroke" data-item-order="18000000000" transform="translate(116.15792846679688, 9)"></g><g id="g-root-tx_mecanism_1ut1d3fingvm5-stroke" data-item-order="18000000000" transform="translate(527, 12)"></g><g id="g-root-cu_meubuzingvsy-stroke" data-item-order="18000000000" transform="translate(315.5999755859375, 400.5)"><g id="cu_meubuzingvsy-stroke" fill="none" stroke-linecap="round" stroke-linejoin="round" stroke-miterlimit="4" stroke="#a3a3a3" stroke-width="2" stroke-dasharray="5.0, 7.0"><g><path d="M 31.7 10L 31.7 20.5L 31.7 31L 20.8 31L 10 31"></path></g></g></g><g id="g-root-cu_meubuzingvsx-stroke" data-item-order="18000000000" transform="translate(327.5454406738281, 400.5)"><g id="cu_meubuzingvsx-stroke" fill="none" stroke-linecap="round" stroke-linejoin="round" stroke-miterlimit="4" stroke="#a3a3a3" stroke-width="2" stroke-dasharray="5.0, 7.0"><g><path d="M 19.7 10L 19.7 13L 19.7 21.9C 19.715246 23.688698 19.815753 25.665354 20 27.8L 20.8 33.7L 21.6 39.5C 21.758222 41.657252 21.825255 43.634721 21.8 45.399999L 21.8 45.5L 21.8 47.1C 21.745787 52.710695 17.210695 57.245786 11.6 57.3L 11.5 57.3L 10 57.3"></path></g></g></g><g id="g-root-cu_meubuzingvt2-stroke" data-item-order="18000000000" transform="translate(537.6209716796875, 396)"><g id="cu_meubuzingvt2-stroke" fill="none" stroke-linecap="round" stroke-linejoin="round" stroke-miterlimit="4" stroke="#a3a3a3" stroke-width="2" stroke-dasharray="5.0, 7.0"><g><path d="M 10 10L 10 20.5L 10 31L 21.4 31L 32.8 31"></path></g></g></g><g id="g-root-cu_meubuzingvt0-stroke" data-item-order="18000000000" transform="translate(537.6209716796875, 396)"><g id="cu_meubuzingvt0-stroke" fill="none" stroke-linecap="round" stroke-linejoin="round" stroke-miterlimit="4" stroke="#a3a3a3" stroke-width="2" stroke-dasharray="5.0, 7.0"><g><path d="M 10 10L 10 15.6L 10 43C 10.000001 49.627416 15.372584 54.999999 22.000001 54.999999L 22.1 55L 31.4 55"></path></g></g></g><g id="g-root-tx_integral_meubuzingvsw-stroke" data-item-order="18000000000" transform="translate(177, 409.5)"></g><g id="g-root-tx_meubuzingvt4-stroke" data-item-order="18000000000" transform="translate(417, 410.947265625)"></g><g id="g-root-cu_4nkbd7ingvt4-stroke" data-item-order="18000000002" transform="translate(495, 165)"><g id="cu_4nkbd7ingvt4-stroke" fill="none" stroke-linecap="round" stroke-linejoin="round" stroke-miterlimit="4" stroke="#a3a3a3" stroke-width="2"><style>.fillAsStrokeColor-mk-18gbkp7iniakp { fill:#a3a3a3; }</style><g><path d="M 14.01 103.95C 23.23 103.28 30.5 95.59 30.5 86.2L 30.5 86.1L 30.5 86C 30.49 82.49 30.28 78.6 29.9 74.4C 29.74 72.06 29.17 68.05 28.3 63C 27.45 58.21 26.86 54.22 26.6 51.6C 26.22 47.4 26.01 43.51 26 40L 26 39.9L 26 31.4C 26 19.58 35.58 10 47.4 10L 47.5 10L 50.6 10"></path><path d="M 12 104L 18.9 99.9L 19 107.9Z" stroke-dasharray="none" class="fillAsStrokeColor-mk-18gbkp7iniakp" fill="#a3a3a3"></path></g></g></g><g id="g-root-cu_4nkbd7ingvtb-stroke" data-item-order="18000000002" transform="translate(327, 207)"><g id="cu_4nkbd7ingvtb-stroke" fill="none" stroke-linecap="round" stroke-linejoin="round" stroke-miterlimit="4" stroke="#a3a3a3" stroke-width="2"><style>.fillAsStrokeColor-mk-hwjjijlz7uo0 { fill:#a3a3a3; }</style><g><path d="M 54.03 61.98C 42.89 61.52 34 52.35 34 41.1L 34 41L 34 30.9C 34 19.36 24.64 10 13.1 10L 13 10L 10 10"></path><path d="M 56 62L 49 66L 49 58Z" stroke-dasharray="none" class="fillAsStrokeColor-mk-hwjjijlz7uo0" fill="#a3a3a3"></path></g></g></g><g id="g-root-cu_hz0tqjingvsx-stroke" data-item-order="18000000002" transform="translate(318.6842041015625, 303.7890625)"><g id="cu_hz0tqjingvsx-stroke" fill="none" stroke-linecap="round" stroke-linejoin="round" stroke-miterlimit="4" stroke="#a3a3a3" stroke-width="2"><style>.fillAsStrokeColor-mk-zrjyqjjr5h58 { fill:#a3a3a3; }</style><g><path d="M 62.3 10L 59.3 10L 34 10C 20.75 10 10 20.75 10 34L 10 34.1L 10 46.7"></path><path d="M 64.3 10L 57.3 14L 57.3 6Z" stroke-dasharray="none" class="fillAsStrokeColor-mk-zrjyqjjr5h58" fill="#a3a3a3"></path></g></g></g><g id="g-root-cu_hz0tqjingvsz-stroke" data-item-order="18000000002" transform="translate(495, 309)"><g id="cu_hz0tqjingvsz-stroke" fill="none" stroke-linecap="round" stroke-linejoin="round" stroke-miterlimit="4" stroke="#a3a3a3" stroke-width="2"><style>.fillAsStrokeColor-mk-1q9gu57l5213f { fill:#a3a3a3; }</style><g><path d="M 14 10L 16.5 10L 38.2 10C 51.18 10 61.7 20.52 61.7 33.5L 61.7 33.6L 61.7 37"></path><path d="M 12 10L 19 6L 19 14Z" stroke-dasharray="none" class="fillAsStrokeColor-mk-1q9gu57l5213f" fill="#a3a3a3"></path></g></g></g><g id="g-root-cu_7qt8ringvsw-stroke" data-item-order="18000000002" transform="translate(435, 36)"><g id="cu_7qt8ringvsw-stroke" fill="none" stroke-linecap="round" stroke-linejoin="round" stroke-miterlimit="4" stroke="#a3a3a3" stroke-width="2"><style>.fillAsStrokeColor-mk-dhyaazid61oi { fill:#a3a3a3; }</style><g><path d="M 10 183L 10 164.9L 10 34C 10 20.75 20.75 10 34 10L 34.1 10L 60 10"></path><path d="M 10 185L 6 178L 14 178Z" stroke-dasharray="none" class="fillAsStrokeColor-mk-dhyaazid61oi" fill="#a3a3a3"></path></g></g></g><g id="g-root-cu_1ut1d3fingvm6-stroke" data-item-order="18000000002" transform="translate(392.1579284667969, 45)"><g id="cu_1ut1d3fingvm6-stroke" fill="none" stroke-linecap="round" stroke-linejoin="round" stroke-miterlimit="4" stroke="#a3a3a3" stroke-width="2"><style>.fillAsStrokeColor-mk-18gbkp7iniakn { fill:#a3a3a3; }</style><g><path d="M 32.8 174L 32.8 157L 32.8 29.9C 32.8 18.95 23.95 10.06 13 10L 12.9 10L 10 10"></path><path d="M 32.8 176L 28.8 169L 36.8 169Z" stroke-dasharray="none" class="fillAsStrokeColor-mk-18gbkp7iniakn" fill="#a3a3a3"></path></g></g></g></g></g><path id="wzqy0ikkvj9c7" d="M65.283 12.757a.35.35 0 0 0 .584.157l5.203-5.141-6.183 3.523.396 1.461zm-2.216-11.7a.35.35 0 0 0-.522.305v3.111l3.276-1.868-2.754-1.548zm3.728 2.105l-4.25 2.421v2.445l6.391-3.644-2.141-1.222zm4.708 3.303a.35.35 0 0 0 0-.609l-1.592-.9-7.365 4.199v1.782a.35.35 0 0 0 .523.305l8.435-4.777z M44.542 2.513c0-.433.355-.783.792-.783s.792.35.792.783-.355.783-.792.783-.792-.35-.792-.783zm59.171 0c0-.433.355-.783.792-.783s.792.35.792.783-.355.783-.792.783-.792-.35-.792-.783zm-85.951 7.636h-1.27v-.487c-.276.201-.864.609-1.881.609-1.202 0-2.274-.794-2.137-2.078.118-1.106 1.153-1.584 1.848-1.727l2.17-.345c0-.539-.29-.956-1.064-1.006s-1.21.305-1.571 1.017l-1.124-.605c1.218-2.631 5.029-1.764 5.029.414v4.207zm-1.27-2.86c.006.396-.062 1.112-.819 1.59-.587.37-1.841.299-1.903-.395-.049-.555.461-.791.906-.898l1.816-.297zm72.662 2.86h-1.27v-.487c-.276.201-.864.609-1.881.609-1.202 0-2.274-.794-2.137-2.078.118-1.106 1.153-1.584 1.848-1.727l2.17-.345c0-.539-.29-.956-1.064-1.006s-1.21.305-1.571 1.017l-1.124-.605c1.218-2.631 5.029-1.764 5.029.414v4.207zm-1.27-2.86c.006.396-.062 1.112-.82 1.59-.587.37-1.841.299-1.903-.395-.049-.555.461-.791.906-.898l1.816-.297zM99.096 10.149H97.85v-8.45h1.246v4.895l2.68-2.559h1.738l-2.633 2.535 2.715 3.578h-1.556l-2.077-2.707-.867.844v1.863zm6.053-6.114h-1.255v6.113h1.255V4.035zm-59.2 0h-1.255v6.113h1.255V4.035zm5.584 6.113V1.697h1.255v2.695c.361-.346 1-.485 1.47-.485 1.452 0 2.477 1.082 2.457 2.448v3.792h-1.27v-3.68c0-.408-.214-1.339-1.315-1.339-.968 0-1.342.756-1.342 1.339v3.681h-1.255zm-4.76-4.894V4.039h.621a.45.45 0 0 0 .45-.45v-.855h1.251v1.305h1.309v1.215h-1.309v3.109c0 .293.105.664.648.664.365 0 .531-.035.736-.07v1.137s-.361.113-.857.113c-1.398 0-1.777-1.051-1.777-1.788V5.254h-1.071zM36.528 4.039h-1.394l2.191 6.106h1.125l1.234-3.918 1.238 3.918h1.129l2.188-6.106h-1.383l-1.359 3.93-1.256-3.93h-1.124l-1.242 3.957-1.348-3.957zM26.212 7.141c-.02 1.566 1.187 3.129 3.223 3.129 1.566 0 2.383-.918 2.734-1.719L31.172 8c-.315.399-.801 1.094-1.738 1.094-1.145 0-1.825-.781-1.891-1.52h4.625c.074-.284.148-.995-.03-1.559-.336-1.064-1.221-2.102-2.839-2.102s-3.088 1.152-3.088 3.227zm1.363-.75h3.348c-.055-.43-.566-1.301-1.623-1.301a1.79 1.79 0 0 0-1.725 1.301zm-8.758.75c.038 1.758 1.277 3.133 3.145 3.133 1.074 0 1.723-.477 1.961-.672v.547h1.242V1.703h-1.258v2.888c-.414-.36-1.062-.68-1.93-.68-1.91 0-3.198 1.473-3.16 3.23zm1.309-.08c0 1.119.723 1.978 1.836 1.978a1.88 1.88 0 0 0 1.94-1.904c0-1.371-1.011-1.99-1.972-1.99s-1.805.798-1.805 1.916zm76.683-.028C96.771 5.275 95.532 3.9 93.664 3.9c-1.074 0-1.723.477-1.961.672v-.547h-1.242v8.22h1.258V9.583c.414.36 1.063.68 1.93.68 1.91 0 3.198-1.473 3.16-3.23zm-1.309.08c0-1.119-.723-1.978-1.836-1.978a1.88 1.88 0 0 0-1.94 1.904c0 1.371 1.011 1.99 1.972 1.99S95.5 8.231 95.5 7.113zM106.441 10.173V4.036h1.254v.382c.361-.346 1-.485 1.47-.485 1.452 0 2.477 1.082 2.457 2.448v3.792h-1.27V6.492c0-.408-.214-1.339-1.315-1.339-.969 0-1.342.756-1.342 1.339v3.681h-1.254zm-30.383-.021V1.824h1.084l4.215 5.777V1.824h1.32v8.328h-1.094l-4.207-5.796v5.796h-1.319zM5.24 10.149H4V2.377h1.014l2.664 3.597 2.654-3.592h1.03v7.766h-1.256V4.762L7.678 8.068 5.24 4.742v5.407z" transform="translate(17.053314208984375, 501.9462890625)" fill="#80808088" stroke="none"></path></svg>