<?xml version="1.0" encoding="utf-8" standalone="yes"?>
<!DOCTYPE svg PUBLIC "-//W3C//DTD SVG 1.1//EN" "http://www.w3.org/Graphics/SVG/1.1/DTD/svg11.dtd">
<svg width="996" height="1100" viewBox="0 0 996 1100" style="fill:none;stroke:none;fill-rule:evenodd;clip-rule:evenodd;stroke-linecap:round;stroke-linejoin:round;stroke-miterlimit:1.5;" version="1.1" xmlns="http://www.w3.org/2000/svg" xmlns:xlink="http://www.w3.org/1999/xlink"><style class="text-font-style fontImports" data-font-family="Roboto">@import url(https://fonts.googleapis.com/css2?family=Roboto:wght@400;700&amp;amp;display=block);</style><style class="text-font-style fontImports" data-font-family="Times New Roman"></style><g id="items" style="isolation: isolate"><g id="blend" style="mix-blend-mode: normal"><g id="g-root-cp_7_g-7_hsrwhqt6vw90-fill" data-item-order="-932821" transform="translate(160, 166.76953125)"></g><g id="g-root-sy_7_Ellipse_8xrdbyt6vtvx-fill" data-item-order="-932813" transform="translate(367.5, 201.7578125)"></g><g id="g-root-cp_6_g-6_8xrdbyt6vtvy-fill" data-item-order="-932811" transform="translate(26, 443)"></g><g id="g-root-sy_6_Ellipse_8xrdbyt6vtvz-fill" data-item-order="-932803" transform="translate(153.26995849609375, 360.5)"></g><g id="g-root-cp_5_g-5_ddkvget6vtvk-fill" data-item-order="-932801" transform="translate(159.99972534179688, 719.89453125)"></g><g id="g-root-sy_5_Ellipse_ddkvget6vtvl-fill" data-item-order="-932793" transform="translate(151.331787109375, 663.71875)"></g><g id="g-root-cp_4_g-4_ddkvget6vtvm-fill" data-item-order="-932791" transform="translate(457.9996337890625, 788.6484375)"></g><g id="g-root-sy_4_Ellipse_ddkvget6vtvn-fill" data-item-order="-932783" transform="translate(365.354248046875, 886.17578125)"></g><g id="g-root-cp_3_g-3_4hxv7it6vuoc-fill" data-item-order="-932781" transform="translate(700.00048828125, 596.80859375)"></g><g id="g-root-sy_3_Ellipse_4hxv7it6vuod-fill" data-item-order="-932773" transform="translate(673.0419311523438, 799.46484375)"></g><g id="g-root-cp_2_g-2_4hxv7it6vuoe-fill" data-item-order="-932771" transform="translate(699, 290.52734375)"></g><g id="g-root-sy_2_Ellipse_4hxv7it6vuof-fill" data-item-order="-932763" transform="translate(839, 507.703125)"></g><g id="g-root-cp_1_g-1_8xrdbyt6vuo0-fill" data-item-order="-932761" transform="translate(459, 98.234375)"></g><g id="g-root-sy_1_Ellipse_8xrdbyt6vuo1-fill" data-item-order="-932753" transform="translate(671.1500244140625, 251)"></g><g id="g-root-ic_shie_dcyedat79vkc-fill" data-item-order="-3600" transform="translate(86, 338)"><g id="ic_shie_dcyedat79vkc-fill-merged" stroke="none" fill="#000000"><g><path d="M61.05 10 H18.95C16.889 10.014 15.225 11.689 15.225 13.75 V29.4C15.168 46.327 24.483 61.896 39.425 69.85C39.782 70.05 40.218 70.05 40.575 69.85C55.517 61.896 64.832 46.327 64.775 29.4 V13.75C64.775 11.689 63.111 10.014 61.05 10 M54.75 29.85L36.975 46.6C36.514 47.032 35.907 47.273 35.275 47.275C34.61 47.279 33.972 47.018 33.5 46.55L27.5 40.55C26.531 39.575 26.531 38 27.5 37.025C27.969 36.552 28.608 36.286 29.275 36.286C29.942 36.286 30.581 36.552 31.05 37.025L35.25 41.275L51.25 26.275C52.237 25.309 53.821 25.326 54.787 26.313C55.753 27.3 55.737 28.883 54.75 29.85"></path></g></g></g><g id="g-root-ic_idea_142dbget79wqp-fill" data-item-order="-3600" transform="translate(374, 129)"><g id="ic_idea_142dbget79wqp-fill-merged" stroke="none" fill="#000000"><g><path d="M68.125 42C67.089 42 66.25 42.839 66.25 43.875 V59.3C66.237 59.649 65.949 59.925 65.6 59.925C58.088 59.915 50.645 61.349 43.675 64.15C43.295 64.364 42.83 64.364 42.45 64.15C42.098 63.904 41.885 63.504 41.875 63.075 V33.425C41.875 26.7 27.675 23.225 14.375 22.85C13.204 22.793 12.061 23.228 11.225 24.05C10.41 24.903 9.969 26.046 10 27.225 V59.3C9.999 61.678 11.898 63.621 14.275 63.675C24.275 63.95 33.5 66.175 37.025 68.925C38.749 70.36 41.251 70.36 42.975 68.925C46.5 66.075 55.625 63.925 65.725 63.675C68.102 63.621 70.001 61.678 70 59.3 V43.875C70 42.839 69.161 42 68.125 42 M38.125 63.025C38.115 63.454 37.902 63.854 37.55 64.1C37.17 64.314 36.705 64.314 36.325 64.1C29.347 61.342 21.903 59.95 14.4 60C14.051 60 13.763 59.724 13.75 59.375 V27.225C13.748 27.046 13.821 26.874 13.95 26.75C14.049 26.633 14.197 26.569 14.35 26.575C29.975 27.05 38.125 31.275 38.125 33.425 V63.025 M33.15 35.375C28.941 34.023 24.585 33.184 20.175 32.875C19.68 32.819 19.183 32.965 18.797 33.281C18.411 33.596 18.169 34.054 18.125 34.55C18.076 35.048 18.229 35.544 18.548 35.929C18.867 36.314 19.327 36.556 19.825 36.6C23.954 36.933 28.026 37.773 31.95 39.1C32.592 39.344 33.316 39.218 33.837 38.771C34.359 38.324 34.594 37.628 34.451 36.956C34.307 36.285 33.808 35.745 33.15 35.55 V35.375 M33.15 44.55C28.941 43.198 24.585 42.359 20.175 42.05C19.484 41.937 18.788 42.219 18.37 42.781C17.952 43.343 17.881 44.091 18.187 44.72C18.494 45.35 19.125 45.757 19.825 45.775C23.953 46.118 28.024 46.957 31.95 48.275C32.436 48.474 32.983 48.46 33.458 48.237C33.933 48.013 34.293 47.601 34.45 47.1C34.663 46.591 34.642 46.015 34.391 45.524C34.141 45.032 33.687 44.676 33.15 44.55 M33.15 53.725C28.938 52.384 24.583 51.545 20.175 51.225C19.133 51.129 18.209 51.895 18.113 52.938C18.016 53.98 18.783 54.903 19.825 55C23.954 55.33 28.027 56.17 31.95 57.5C32.937 57.831 34.006 57.3 34.338 56.313C34.669 55.325 34.137 54.256 33.15 53.925 V53.725 M56.25 17.5C57.631 17.5 58.75 16.381 58.75 15 V12.5C58.75 11.119 57.631 10 56.25 10C54.869 10 53.75 11.119 53.75 12.5 V15C53.75 16.381 54.869 17.5 56.25 17.5 M65.875 20.3C66.615 20.307 67.319 19.987 67.8 19.425L69.4 17.5C70.064 16.834 70.298 15.851 70.005 14.956C69.712 14.062 68.941 13.409 68.011 13.265C67.082 13.121 66.15 13.511 65.6 14.275L63.975 16.2C63.547 16.707 63.338 17.363 63.394 18.025C63.451 18.686 63.767 19.298 64.275 19.725C64.725 20.098 65.291 20.301 65.875 20.3 M44.7 19.425C45.591 20.481 47.169 20.616 48.225 19.725C49.281 18.835 49.416 17.256 48.525 16.2L46.9 14.275C46.35 13.511 45.418 13.121 44.489 13.265C43.559 13.409 42.788 14.062 42.495 14.956C42.202 15.851 42.436 16.834 43.1 17.5L44.7 19.425 M56.25 51.875C57.28 51.862 58.112 51.03 58.125 50 V49.4C58.119 48.974 58.35 48.579 58.725 48.375C60.278 47.478 61.232 45.818 61.225 44.025 V42.075C61.228 41.631 61.466 41.222 61.85 41C66.26 38.454 68.41 33.264 67.092 28.346C65.774 23.427 61.317 20.007 56.225 20.007C51.133 20.007 46.676 23.427 45.358 28.346C44.04 33.264 46.19 38.454 50.6 41C50.984 41.222 51.222 41.631 51.225 42.075 V44.025C51.218 45.818 52.172 47.478 53.725 48.375C54.1 48.579 54.331 48.974 54.325 49.4 V50C54.339 51.049 55.201 51.889 56.25 51.875 M50 31.25C50 27.798 52.798 25 56.25 25C59.702 25 62.5 27.798 62.5 31.25C62.5 34.702 59.702 37.5 56.25 37.5C52.798 37.5 50 34.702 50 31.25"></path></g></g></g><g id="g-root-ic_stra_dbpg72t72wwf-fill" data-item-order="-3600" transform="translate(861, 524)"><g id="ic_stra_dbpg72t72wwf-fill-merged" stroke="none" fill="#000000"><g><path d="M14.125 63.675C14.125 67.127 16.923 69.925 20.375 69.925C23.827 69.925 26.625 67.127 26.625 63.675C26.625 60.223 23.827 57.425 20.375 57.425C16.923 57.425 14.125 60.223 14.125 63.675 M35.375 57.425 H45.375C45.375 57.425 46.625 57.425 46.625 58.675 V68.675C46.625 68.675 46.625 69.925 45.375 69.925 H35.375C35.375 69.925 34.125 69.925 34.125 68.675 V58.675C34.125 58.675 34.125 57.425 35.375 57.425 M65.725 68.1L61.5 59.65C61.3 59.216 60.866 58.938 60.388 58.938C59.909 58.938 59.475 59.216 59.275 59.65L55 68.1C54.786 68.48 54.786 68.945 55 69.325C55.22 69.696 55.619 69.924 56.05 69.925 H64.525C64.956 69.924 65.355 69.696 65.575 69.325C65.837 68.972 65.894 68.506 65.725 68.1 M20.375 55C21.756 55 22.875 53.881 22.875 52.5 V49.3C22.875 48.955 23.155 48.675 23.5 48.675 H37.25C37.595 48.675 37.875 48.955 37.875 49.3 V52.5C37.875 53.881 38.994 55 40.375 55C41.756 55 42.875 53.881 42.875 52.5 V49.3C42.875 48.955 43.155 48.675 43.5 48.675 H57.25C57.595 48.675 57.875 48.955 57.875 49.3 V52.5C57.875 53.881 58.994 55 60.375 55C61.756 55 62.875 53.881 62.875 52.5 V47.5C62.875 45.429 61.196 43.75 59.125 43.75 H21.625C19.554 43.75 17.875 45.429 17.875 47.5 V52.5C17.875 53.881 18.994 55 20.375 55 M33.9 28.825C34.048 28.948 34.131 29.133 34.125 29.325 V30.7C34.165 31.706 34.993 32.501 36 32.5 H44.75C45.249 32.507 45.73 32.311 46.083 31.958C46.436 31.605 46.632 31.124 46.625 30.625 V29.325C46.629 29.129 46.721 28.945 46.875 28.825C49.435 26.903 50.959 23.901 51 20.7C50.895 14.864 46.21 10.146 40.375 10C34.545 10.159 29.868 14.869 29.75 20.7C29.801 23.905 31.333 26.905 33.9 28.825 M40.175 41.75C41.211 41.75 42.05 40.911 42.05 39.875 V39.45C42.05 39.105 42.33 38.825 42.675 38.825 H43.5C44.536 38.825 45.375 37.986 45.375 36.95C45.375 35.914 44.536 35.075 43.5 35.075 H37.25C36.214 35.075 35.375 35.914 35.375 36.95C35.375 37.986 36.214 38.825 37.25 38.825 H37.675C38.02 38.825 38.3 39.105 38.3 39.45 V40C38.378 40.981 39.191 41.74 40.175 41.75"></path></g></g></g><g id="g-root-ic_sear_1d3mlhat6vtos-fill" data-item-order="-3600" transform="translate(722, 206)"><g id="ic_sear_1d3mlhat6vtos-fill-merged" stroke="none" fill="#000000"><g><path d="M45.775 23.8C45.775 22.764 44.936 21.925 43.9 21.925C42.864 21.925 42.025 22.764 42.025 23.8C42.023 24.873 41.559 25.894 40.75 26.6C40.578 26.748 40.341 26.795 40.125 26.725C39.319 26.452 38.476 26.308 37.625 26.3C36.773 26.285 35.925 26.43 35.125 26.725C34.909 26.786 34.676 26.74 34.5 26.6C33.657 25.911 33.155 24.889 33.125 23.8C33.125 22.764 32.286 21.925 31.25 21.925C30.214 21.925 29.375 22.764 29.375 23.8C29.386 25.65 30.081 27.431 31.325 28.8C31.514 29.024 31.514 29.351 31.325 29.575C30.579 30.64 30.122 31.88 30 33.175C29.971 33.348 30.027 33.525 30.15 33.65C30.266 33.775 30.429 33.848 30.6 33.85 H44.5C44.695 33.843 44.877 33.752 45 33.6C45.111 33.468 45.165 33.297 45.15 33.125C45.031 31.826 44.565 30.582 43.8 29.525C43.629 29.295 43.629 28.98 43.8 28.75C45.054 27.405 45.759 25.639 45.775 23.8 M26.4 45.675C25.364 45.675 24.525 46.514 24.525 47.55C24.525 48.586 25.364 49.425 26.4 49.425 H30.475C30.704 49.424 30.915 49.549 31.025 49.75C32.322 52.215 34.877 53.758 37.663 53.758C40.448 53.758 43.003 52.215 44.3 49.75C44.406 49.545 44.619 49.419 44.85 49.425 H48.9C49.936 49.425 50.775 48.586 50.775 47.55C50.775 46.514 49.936 45.675 48.9 45.675 H45.775C45.43 45.675 45.15 45.395 45.15 45.05 V42.5C45.15 42.155 45.43 41.875 45.775 41.875 H48.9C49.936 41.875 50.775 41.036 50.775 40C50.775 38.964 49.936 38.125 48.9 38.125 H45.775C45.43 38.125 45.15 37.845 45.15 37.5 V36.875C45.15 36.53 44.87 36.25 44.525 36.25 H30.775C30.43 36.25 30.15 36.53 30.15 36.875 V37.5C30.15 37.845 29.87 38.125 29.525 38.125 H26.4C25.364 38.125 24.525 38.964 24.525 40C24.525 41.036 25.364 41.875 26.4 41.875 H29.525C29.87 41.875 30.15 42.155 30.15 42.5 V45C30.15 45.345 29.87 45.625 29.525 45.625 H26.4 M10 37.5C10.003 47.759 15.716 57.164 24.82 61.894C33.923 66.625 44.903 65.894 53.3 60C53.779 59.555 54.521 59.555 55 60L63.7 68.8C65.171 70.263 67.549 70.257 69.012 68.787C70.476 67.317 70.47 64.939 69 63.475L60.275 54.675C59.851 54.242 59.799 53.568 60.15 53.075C66.859 43.331 66.585 30.387 59.468 20.936C52.351 11.486 39.987 7.646 28.769 11.402C17.55 15.159 9.991 25.669 10 37.5 M37.5 15C49.926 15 60 25.074 60 37.5C60 49.926 49.926 60 37.5 60C25.074 60 15 49.926 15 37.5C15 25.074 25.074 15 37.5 15"></path></g></g></g><g id="g-root-ic_1_4o6m2mt75pu3-fill" data-item-order="-3600" transform="translate(368, 914)"><g id="ic_1_4o6m2mt75pu3-fill-merged" stroke="none" fill="#000000"><g><path d="M17.925 38.75C17 38.75 16.25 39.3 16.25 40 V60C16.25 60.69 16.81 61.25 17.5 61.25 H25C25.69 61.25 26.25 60.69 26.25 60 V40C26.25 39.3 25.5 38.75 24.575 38.75 H17.925 M37.925 46.25C37 46.25 36.25 46.8 36.25 47.5 V60C36.25 60.69 36.81 61.25 37.5 61.25 H45C45.69 61.25 46.25 60.69 46.25 60 V47.5C46.25 46.8 45.5 46.25 44.575 46.25 H37.925 M56.25 61.25 H63.75C64.086 61.264 64.412 61.137 64.65 60.9C64.887 60.662 65.014 60.336 65 60 V30C65 29.375 64.25 28.85 63.325 28.85 H56.675C55.75 28.85 55 29.375 55 30 V60C54.986 60.336 55.113 60.662 55.35 60.9C55.588 61.137 55.914 61.264 56.25 61.25 M67.5 65 H12.5C11.119 65 10 66.119 10 67.5C10 68.881 11.119 70 12.5 70 H67.5C68.881 70 70 68.881 70 67.5C70 66.119 68.881 65 67.5 65 M57.625 19.85C57.992 19.949 58.37 19.999 58.75 20C61.511 20 63.75 17.761 63.75 15C63.75 12.239 61.511 10 58.75 10C55.989 10 53.75 12.239 53.75 15C53.725 15.266 53.725 15.534 53.75 15.8C53.779 16.005 53.704 16.211 53.55 16.35L41.7 27.5C41.548 27.648 41.33 27.705 41.125 27.65C40.758 27.551 40.38 27.501 40 27.5C39.125 27.501 38.265 27.724 37.5 28.15C37.313 28.252 37.087 28.252 36.9 28.15L25.275 22.35C25.118 22.24 25.017 22.066 25 21.875C24.666 19.221 22.301 17.3 19.635 17.517C16.969 17.733 14.945 20.01 15.043 22.683C15.14 25.356 17.325 27.479 20 27.5C20.875 27.499 21.735 27.276 22.5 26.85C22.679 26.752 22.896 26.752 23.075 26.85L34.725 32.65C34.901 32.749 35.021 32.925 35.05 33.125C35.416 35.71 37.709 37.578 40.314 37.414C42.919 37.25 44.96 35.11 45 32.5C45.025 32.234 45.025 31.966 45 31.7C44.971 31.495 45.046 31.289 45.2 31.15L57.05 20C57.202 19.852 57.42 19.795 57.625 19.85"></path></g></g></g><g id="g-root-ic_flip_meu5hat774sm-fill" data-item-order="-3600" transform="translate(92, 698)"><g id="ic_flip_meu5hat774sm-fill-merged" stroke="none" fill="#000000"><g><path d="M62.5 16.875 H57.5C57.155 16.875 56.875 16.595 56.875 16.25 V13.125C56.875 11.744 55.756 10.625 54.375 10.625C52.994 10.625 51.875 11.744 51.875 13.125 V23.525C51.875 24.906 52.994 26.025 54.375 26.025C55.756 26.025 56.875 24.906 56.875 23.525 V22.5C56.875 22.155 57.155 21.875 57.5 21.875 H61.25C61.94 21.875 62.5 22.435 62.5 23.125 V49.375C62.5 50.065 61.94 50.625 61.25 50.625 H53.75C50.989 50.625 48.75 52.864 48.75 55.625 V63.125C48.75 63.815 48.19 64.375 47.5 64.375 H18.75C18.06 64.375 17.5 63.815 17.5 63.125 V23.125C17.5 22.435 18.06 21.875 18.75 21.875 H21.25C21.595 21.875 21.875 21.595 21.875 21.25 V17.5C21.875 17.155 21.595 16.875 21.25 16.875 H17.5C14.739 16.875 12.5 19.114 12.5 21.875 V64.375C12.5 67.136 14.739 69.375 17.5 69.375 H51.25C51.952 69.38 52.623 69.089 53.1 68.575L66.85 53.575C67.273 53.11 67.505 52.503 67.5 51.875 V21.875C67.5 19.114 65.261 16.875 62.5 16.875 M40.625 26.025C42.006 26.025 43.125 24.906 43.125 23.525 V22.5C43.125 22.155 43.405 21.875 43.75 21.875 H48.75C49.095 21.875 49.375 21.595 49.375 21.25 V17.5C49.375 17.155 49.095 16.875 48.75 16.875 H43.75C43.405 16.875 43.125 16.595 43.125 16.25 V13.125C43.125 11.744 42.006 10.625 40.625 10.625C39.244 10.625 38.125 11.744 38.125 13.125 V23.525C38.125 24.906 39.244 26.025 40.625 26.025 M26.875 26.025C28.256 26.025 29.375 24.906 29.375 23.525 V22.5C29.375 22.155 29.655 21.875 30 21.875 H35C35.345 21.875 35.625 21.595 35.625 21.25 V17.5C35.625 17.155 35.345 16.875 35 16.875 H30C29.655 16.875 29.375 16.595 29.375 16.25 V13.125C29.375 11.744 28.256 10.625 26.875 10.625C25.494 10.625 24.375 11.744 24.375 13.125 V23.525C24.375 24.906 25.494 26.025 26.875 26.025 M26.975 41.15C27.444 41.623 28.083 41.889 28.75 41.889C29.417 41.889 30.056 41.623 30.525 41.15L38.025 33.65C39.033 32.67 39.055 31.058 38.075 30.05C37.094 29.043 35.483 29.02 34.475 30L28.75 35.85L26.775 33.85C25.767 32.87 24.156 32.893 23.175 33.9C22.195 34.908 22.217 36.52 23.225 37.5L26.975 41.15 M26.975 55C27.444 55.473 28.083 55.739 28.75 55.739C29.417 55.739 30.056 55.473 30.525 55L38.025 47.5C39.005 46.52 39.005 44.93 38.025 43.95C37.045 42.97 35.455 42.97 34.475 43.95L28.75 49.6L26.775 47.5C25.795 46.52 24.205 46.52 23.225 47.5C22.245 48.48 22.245 50.07 23.225 51.05L26.975 55 M42.5 36.875C42.5 38.256 43.619 39.375 45 39.375 H55C56.381 39.375 57.5 38.256 57.5 36.875C57.5 35.494 56.381 34.375 55 34.375 H45C43.619 34.375 42.5 35.494 42.5 36.875"></path></g></g></g><g id="g-root-ic_lapt_dgp8vyt74ah1-fill" data-item-order="-3600" transform="translate(722, 844)"><g id="ic_lapt_dgp8vyt74ah1-fill-merged" stroke="none" fill="#000000"><g><path d="M42.5 34C47.185 32.802 50.466 28.586 50.475 23.75 V23.125 H52.975C54.011 23.125 54.85 22.286 54.85 21.25C54.85 20.214 54.011 19.375 52.975 19.375 H50.125L48 11.4C47.785 10.58 47.047 10.006 46.2 10 H33.7C32.846 10.004 32.1 10.576 31.875 11.4L29.75 19.375 H26.825C25.789 19.375 24.95 20.214 24.95 21.25C24.95 22.286 25.789 23.125 26.825 23.125 H29.325 V23.75C29.334 28.586 32.615 32.802 37.3 34C32.012 34.964 27.644 38.683 25.85 43.75 H54.025C52.218 38.663 47.816 34.939 42.5 34 M33.075 23.75 V23.125 H46.825 V23.75C46.825 27.547 43.747 30.625 39.95 30.625C36.153 30.625 33.075 27.547 33.075 23.75 M58.85 47.5 H21.15C20.422 47.493 19.726 47.804 19.246 48.351C18.766 48.899 18.548 49.629 18.65 50.35L21.475 67.85C21.695 69.053 22.752 69.92 23.975 69.9 H56.025C57.2 69.86 58.189 69.007 58.4 67.85L61.225 50.35C61.325 49.65 61.123 48.941 60.67 48.398C60.218 47.854 59.556 47.528 58.85 47.5 M40 62.5C37.929 62.5 36.25 60.821 36.25 58.75C36.25 56.679 37.929 55 40 55C42.071 55 43.75 56.679 43.75 58.75C43.75 60.821 42.071 62.5 40 62.5"></path></g></g></g><g id="g-root-tx_planstra_1hegawut6vthe-fill" data-item-order="0" transform="translate(699, 348)"><g id="tx_planstra_1hegawut6vthe-fill-merged" stroke="none" fill="#000000"><g><text style="font-style: normal; font-variant-caps: normal; font-weight: bold; font-width: normal; font-size: 30px; line-height: normal; font-family: &quot;Times New Roman&quot;, serif; font-size-adjust: none; font-kerning: auto; font-variant-alternates: normal; font-variant-ligatures: normal; font-variant-numeric: normal; font-variant-east-asian: normal; font-variant-position: normal; font-variant-emoji: normal; font-feature-settings: normal; font-optical-sizing: auto; font-variation-settings: normal; white-space: pre;"><tspan x="30.72" y="68" dominant-baseline="ideographic">Plan Strategy</tspan></text></g></g></g><g id="g-root-tx_identify_4ot35qt6vtvu-fill" data-item-order="0" transform="translate(178, 291)"><g id="tx_identify_4ot35qt6vtvu-fill-merged" stroke="none" fill="#000000"><g><text style="font-style: normal; font-variant-caps: normal; font-weight: normal; font-width: normal; font-size: 20px; line-height: normal; font-family: &quot;Times New Roman&quot;, serif; font-size-adjust: none; font-kerning: auto; font-variant-alternates: normal; font-variant-ligatures: normal; font-variant-numeric: normal; font-variant-east-asian: normal; font-variant-position: normal; font-variant-emoji: normal; font-feature-settings: normal; font-optical-sizing: auto; font-variation-settings: normal; white-space: pre;"><tspan x="17.5" y="33" dominant-baseline="ideographic">Identify weaknesses </tspan><tspan x="48.5" y="57" dominant-baseline="ideographic">and improve </tspan><tspan x="50.5" y="81" dominant-baseline="ideographic">assessments</tspan></text></g></g></g><g id="g-root-tx_evaluate_144v7sut6vu2p-fill" data-item-order="0" transform="translate(482, 913)"><g id="tx_evaluate_144v7sut6vu2p-fill-merged" stroke="none" fill="#000000"><g><text style="font-style: normal; font-variant-caps: normal; font-weight: normal; font-width: normal; font-size: 20px; line-height: normal; font-family: &quot;Times New Roman&quot;, serif; font-size-adjust: none; font-kerning: auto; font-variant-alternates: normal; font-variant-ligatures: normal; font-variant-numeric: normal; font-variant-east-asian: normal; font-variant-position: normal; font-variant-emoji: normal; font-feature-settings: normal; font-optical-sizing: auto; font-variation-settings: normal; white-space: pre;"><tspan x="13" y="33" dominant-baseline="ideographic">Evaluate the impact </tspan><tspan x="45" y="57" dominant-baseline="ideographic">and risks of </tspan><tspan x="35" y="81" dominant-baseline="ideographic">vulnerabilities</tspan></text></g></g></g><g id="g-root-tx_developa_142zsjit6vv2b-fill" data-item-order="0" transform="translate(723, 406)"><g id="tx_developa_142zsjit6vv2b-fill-merged" stroke="none" fill="#000000"><g><text style="font-style: normal; font-variant-caps: normal; font-weight: normal; font-width: normal; font-size: 20px; line-height: normal; font-family: &quot;Times New Roman&quot;, serif; font-size-adjust: none; font-kerning: auto; font-variant-alternates: normal; font-variant-ligatures: normal; font-variant-numeric: normal; font-variant-east-asian: normal; font-variant-position: normal; font-variant-emoji: normal; font-feature-settings: normal; font-optical-sizing: auto; font-variation-settings: normal; white-space: pre;"><tspan x="16.52" y="33" dominant-baseline="ideographic">Develop a detailed </tspan><tspan x="57.52" y="57" dominant-baseline="ideographic">test plan</tspan></text></g></g></g><g id="g-root-tx_6_qva4out6vuo0-fill" data-item-order="0" transform="translate(122, 454)"><g id="tx_6_qva4out6vuo0-fill-merged" stroke="none" fill="#000000"><g><text style="font-style: normal; font-variant-caps: normal; font-weight: bold; font-width: normal; font-size: 20px; line-height: normal; font-family: Roboto, sans-serif; font-size-adjust: none; font-kerning: auto; font-variant-alternates: normal; font-variant-ligatures: normal; font-variant-numeric: normal; font-variant-east-asian: normal; font-variant-position: normal; font-variant-emoji: normal; font-feature-settings: normal; font-optical-sizing: auto; font-variation-settings: normal; white-space: pre;"><tspan x="16.26" y="34" dominant-baseline="ideographic">6</tspan></text></g></g></g><g id="g-root-tx_mitigate_1d1r67yt6vuoe-fill" data-item-order="0" transform="translate(68, 483)"><g id="tx_mitigate_1d1r67yt6vuoe-fill-merged" stroke="none" fill="#000000"><g><text style="font-style: normal; font-variant-caps: normal; font-weight: bold; font-width: normal; font-size: 30px; line-height: normal; font-family: &quot;Times New Roman&quot;, serif; font-size-adjust: none; font-kerning: auto; font-variant-alternates: normal; font-variant-ligatures: normal; font-variant-numeric: normal; font-variant-east-asian: normal; font-variant-position: normal; font-variant-emoji: normal; font-feature-settings: normal; font-optical-sizing: auto; font-variation-settings: normal; white-space: pre;"><tspan x="17.68" y="44" dominant-baseline="ideographic">Mitigate </tspan><tspan x="36.68" y="80" dominant-baseline="ideographic">Risks</tspan></text></g></g></g><g id="g-root-tx_scananda_8zmslat6vtog-fill" data-item-order="0" transform="translate(495, 222)"><g id="tx_scananda_8zmslat6vtog-fill-merged" stroke="none" fill="#000000"><g><text style="font-style: normal; font-variant-caps: normal; font-weight: normal; font-width: normal; font-size: 20px; line-height: normal; font-family: &quot;Times New Roman&quot;, serif; font-size-adjust: none; font-kerning: auto; font-variant-alternates: normal; font-variant-ligatures: normal; font-variant-numeric: normal; font-variant-east-asian: normal; font-variant-position: normal; font-variant-emoji: normal; font-feature-settings: normal; font-optical-sizing: auto; font-variation-settings: normal; white-space: pre;"><tspan x="15.84" y="33" dominant-baseline="ideographic">Scan and assess </tspan><tspan x="44.84" y="57" dominant-baseline="ideographic">potential </tspan><tspan x="21.84" y="81" dominant-baseline="ideographic">vulnerabilities</tspan></text></g></g></g><g id="g-root-tx_pocmetho_1hckvnit6vugz-fill" data-item-order="0" transform="translate(338, 544)"><g id="tx_pocmetho_1hckvnit6vugz-fill-merged" stroke="none" fill="#000000"><g><text style="font-style: normal; font-variant-caps: normal; font-weight: bold; font-width: normal; font-size: 30px; line-height: normal; font-family: &quot;Times New Roman&quot;, serif; font-size-adjust: none; font-kerning: auto; font-variant-alternates: normal; font-variant-ligatures: normal; font-variant-numeric: normal; font-variant-east-asian: normal; font-variant-position: normal; font-variant-emoji: normal; font-feature-settings: normal; font-optical-sizing: auto; font-variation-settings: normal; white-space: pre;"><tspan x="17.01" y="44" dominant-baseline="ideographic">PoC Methodology Cycle</tspan></text></g></g></g><g id="g-root-tx_applyand_zqanumt6vw9b-fill" data-item-order="0" transform="translate(50, 567)"><g id="tx_applyand_zqanumt6vw9b-fill-merged" stroke="none" fill="#000000"><g><text style="font-style: normal; font-variant-caps: normal; font-weight: normal; font-width: normal; font-size: 20px; line-height: normal; font-family: &quot;Times New Roman&quot;, serif; font-size-adjust: none; font-kerning: auto; font-variant-alternates: normal; font-variant-ligatures: normal; font-variant-numeric: normal; font-variant-east-asian: normal; font-variant-position: normal; font-variant-emoji: normal; font-feature-settings: normal; font-optical-sizing: auto; font-variation-settings: normal; white-space: pre;"><tspan x="14.96" y="33" dominant-baseline="ideographic">Apply and validate </tspan><tspan x="40.96" y="57" dominant-baseline="ideographic">solutions for </tspan><tspan x="33.96" y="81" dominant-baseline="ideographic">vulnerabilities</tspan></text></g></g></g><g id="g-root-tx_3_1qbc9byt6vu33-fill" data-item-order="0" transform="translate(794, 606.99609375)"><g id="tx_3_1qbc9byt6vu33-fill-merged" stroke="none" fill="#000000"><g><text style="font-style: normal; font-variant-caps: normal; font-weight: bold; font-width: normal; font-size: 20px; line-height: normal; font-family: Roboto, sans-serif; font-size-adjust: none; font-kerning: auto; font-variant-alternates: normal; font-variant-ligatures: normal; font-variant-numeric: normal; font-variant-east-asian: normal; font-variant-position: normal; font-variant-emoji: normal; font-feature-settings: normal; font-optical-sizing: auto; font-variation-settings: normal; white-space: pre;"><tspan x="16.26" y="34" dominant-baseline="ideographic">3</tspan></text></g></g></g><g id="g-root-tx_executet_dgp8vyt6vv2d-fill" data-item-order="0" transform="translate(748, 637)"><g id="tx_executet_dgp8vyt6vv2d-fill-merged" stroke="none" fill="#000000"><g><text style="font-style: normal; font-variant-caps: normal; font-weight: bold; font-width: normal; font-size: 30px; line-height: normal; font-family: &quot;Times New Roman&quot;, serif; font-size-adjust: none; font-kerning: auto; font-variant-alternates: normal; font-variant-ligatures: normal; font-variant-numeric: normal; font-variant-east-asian: normal; font-variant-position: normal; font-variant-emoji: normal; font-feature-settings: normal; font-optical-sizing: auto; font-variation-settings: normal; white-space: pre;"><tspan x="15.34" y="44" dominant-baseline="ideographic">Execute </tspan><tspan x="34.34" y="80" dominant-baseline="ideographic">Tests</tspan></text></g></g></g><g id="g-root-tx_reviewle_hzn4fyt6vvgp-fill" data-item-order="0" transform="translate(202, 207)"><g id="tx_reviewle_hzn4fyt6vvgp-fill-merged" stroke="none" fill="#000000"><g><text style="font-style: normal; font-variant-caps: normal; font-weight: bold; font-width: normal; font-size: 30px; line-height: normal; font-family: &quot;Times New Roman&quot;, serif; font-size-adjust: none; font-kerning: auto; font-variant-alternates: normal; font-variant-ligatures: normal; font-variant-numeric: normal; font-variant-east-asian: normal; font-variant-position: normal; font-variant-emoji: normal; font-feature-settings: normal; font-optical-sizing: auto; font-variation-settings: normal; white-space: pre;"><tspan x="29.41" y="44" dominant-baseline="ideographic">Review </tspan><tspan x="16.41" y="80" dominant-baseline="ideographic">Learning</tspan></text></g></g></g><g id="g-root-tx_7_1qegmrit6vv9n-fill" data-item-order="0" transform="translate(256, 181.99609375)"><g id="tx_7_1qegmrit6vv9n-fill-merged" stroke="none" fill="#000000"><g><text style="font-style: normal; font-variant-caps: normal; font-weight: bold; font-width: normal; font-size: 20px; line-height: normal; font-family: Roboto, sans-serif; font-size-adjust: none; font-kerning: auto; font-variant-alternates: normal; font-variant-ligatures: normal; font-variant-numeric: normal; font-variant-east-asian: normal; font-variant-position: normal; font-variant-emoji: normal; font-feature-settings: normal; font-optical-sizing: auto; font-variation-settings: normal; white-space: pre;"><tspan x="16.26" y="34" dominant-baseline="ideographic">7</tspan></text></g></g></g><g id="g-root-tx_5_1qcl7i6t6vw99-fill" data-item-order="0" transform="translate(250, 723.99609375)"><g id="tx_5_1qcl7i6t6vw99-fill-merged" stroke="none" fill="#000000"><g><text style="font-style: normal; font-variant-caps: normal; font-weight: bold; font-width: normal; font-size: 20px; line-height: normal; font-family: Roboto, sans-serif; font-size-adjust: none; font-kerning: auto; font-variant-alternates: normal; font-variant-ligatures: normal; font-variant-numeric: normal; font-variant-east-asian: normal; font-variant-position: normal; font-variant-emoji: normal; font-feature-settings: normal; font-optical-sizing: auto; font-variation-settings: normal; white-space: pre;"><tspan x="16.26" y="34" dominant-baseline="ideographic">5</tspan></text></g></g></g><g id="g-root-tx_conductt_4l28n2t6vvv2-fill" data-item-order="0" transform="translate(724, 721)"><g id="tx_conductt_4l28n2t6vvv2-fill-merged" stroke="none" fill="#000000"><g><text style="font-style: normal; font-variant-caps: normal; font-weight: normal; font-width: normal; font-size: 20px; line-height: normal; font-family: &quot;Times New Roman&quot;, serif; font-size-adjust: none; font-kerning: auto; font-variant-alternates: normal; font-variant-ligatures: normal; font-variant-numeric: normal; font-variant-east-asian: normal; font-variant-position: normal; font-variant-emoji: normal; font-feature-settings: normal; font-optical-sizing: auto; font-variation-settings: normal; white-space: pre;"><tspan x="27.5" y="33" dominant-baseline="ideographic">Conduct tests to </tspan><tspan x="13.5" y="57" dominant-baseline="ideographic">exploit and confirm </tspan><tspan x="34.5" y="81" dominant-baseline="ideographic">vulnerabilities</tspan></text></g></g></g><g id="g-root-tx_generate_hye69qt6vtaj-fill" data-item-order="0" transform="translate(202, 772)"><g id="tx_generate_hye69qt6vtaj-fill-merged" stroke="none" fill="#000000"><g><text style="font-style: normal; font-variant-caps: normal; font-weight: bold; font-width: normal; font-size: 30px; line-height: normal; font-family: &quot;Times New Roman&quot;, serif; font-size-adjust: none; font-kerning: auto; font-variant-alternates: normal; font-variant-ligatures: normal; font-variant-numeric: normal; font-variant-east-asian: normal; font-variant-position: normal; font-variant-emoji: normal; font-feature-settings: normal; font-optical-sizing: auto; font-variation-settings: normal; white-space: pre;"><tspan x="12.69" y="44" dominant-baseline="ideographic">Generate </tspan><tspan x="27.69" y="80" dominant-baseline="ideographic">Report</tspan></text></g></g></g><g id="g-root-tx_identify_hunbr2t6vv9r-fill" data-item-order="0" transform="translate(471, 138)"><g id="tx_identify_hunbr2t6vv9r-fill-merged" stroke="none" fill="#000000"><g><text style="font-style: normal; font-variant-caps: normal; font-weight: bold; font-width: normal; font-size: 30px; line-height: normal; font-family: &quot;Times New Roman&quot;, serif; font-size-adjust: none; font-kerning: auto; font-variant-alternates: normal; font-variant-ligatures: normal; font-variant-numeric: normal; font-variant-east-asian: normal; font-variant-position: normal; font-variant-emoji: normal; font-feature-settings: normal; font-optical-sizing: auto; font-variation-settings: normal; white-space: pre;"><tspan x="55.19" y="44" dominant-baseline="ideographic">Identify </tspan><tspan x="12.19" y="80" dominant-baseline="ideographic">Vulnerabilities</tspan></text></g></g></g><g id="g-root-tx_4_qtepfit6vvnm-fill" data-item-order="0" transform="translate(549, 796.99609375)"><g id="tx_4_qtepfit6vvnm-fill-merged" stroke="none" fill="#000000"><g><text style="font-style: normal; font-variant-caps: normal; font-weight: bold; font-width: normal; font-size: 20px; line-height: normal; font-family: Roboto, sans-serif; font-size-adjust: none; font-kerning: auto; font-variant-alternates: normal; font-variant-ligatures: normal; font-variant-numeric: normal; font-variant-east-asian: normal; font-variant-position: normal; font-variant-emoji: normal; font-feature-settings: normal; font-optical-sizing: auto; font-variation-settings: normal; white-space: pre;"><tspan x="16.26" y="34" dominant-baseline="ideographic">4</tspan></text></g></g></g><g id="g-root-tx_analyzer_1hfp932t6vvnk-fill" data-item-order="0" transform="translate(506, 829)"><g id="tx_analyzer_1hfp932t6vvnk-fill-merged" stroke="none" fill="#000000"><g><text style="font-style: normal; font-variant-caps: normal; font-weight: bold; font-width: normal; font-size: 30px; line-height: normal; font-family: &quot;Times New Roman&quot;, serif; font-size-adjust: none; font-kerning: auto; font-variant-alternates: normal; font-variant-ligatures: normal; font-variant-numeric: normal; font-variant-east-asian: normal; font-variant-position: normal; font-variant-emoji: normal; font-feature-settings: normal; font-optical-sizing: auto; font-variation-settings: normal; white-space: pre;"><tspan x="14.42" y="44" dominant-baseline="ideographic">Analyze </tspan><tspan x="19.42" y="80" dominant-baseline="ideographic">Results</tspan></text></g></g></g><g id="g-root-tx_createte_4mxnwet6vuvg-fill" data-item-order="0" transform="translate(178, 856)"><g id="tx_createte_4mxnwet6vuvg-fill-merged" stroke="none" fill="#000000"><g><text style="font-style: normal; font-variant-caps: normal; font-weight: normal; font-width: normal; font-size: 20px; line-height: normal; font-family: &quot;Times New Roman&quot;, serif; font-size-adjust: none; font-kerning: auto; font-variant-alternates: normal; font-variant-ligatures: normal; font-variant-numeric: normal; font-variant-east-asian: normal; font-variant-position: normal; font-variant-emoji: normal; font-feature-settings: normal; font-optical-sizing: auto; font-variation-settings: normal; white-space: pre;"><tspan x="16.5" y="33" dominant-baseline="ideographic">Create technical and </tspan><tspan x="29.5" y="57" dominant-baseline="ideographic">executive reports</tspan></text></g></g></g><g id="g-root-tx_1_1upac72t6vv29-fill" data-item-order="0" transform="translate(555, 109.99609375)"><g id="tx_1_1upac72t6vv29-fill-merged" stroke="none" fill="#000000"><g><text style="font-style: normal; font-variant-caps: normal; font-weight: bold; font-width: normal; font-size: 20px; line-height: normal; font-family: Roboto, sans-serif; font-size-adjust: none; font-kerning: auto; font-variant-alternates: normal; font-variant-ligatures: normal; font-variant-numeric: normal; font-variant-east-asian: normal; font-variant-position: normal; font-variant-emoji: normal; font-feature-settings: normal; font-optical-sizing: auto; font-variation-settings: normal; white-space: pre;"><tspan x="16.26" y="34" dominant-baseline="ideographic">1</tspan></text></g></g></g><g id="g-root-tx_2_qs5r9at6vthg-fill" data-item-order="0" transform="translate(802, 310)"><g id="tx_2_qs5r9at6vthg-fill-merged" stroke="none" fill="#000000"><g><text style="font-style: normal; font-variant-caps: normal; font-weight: bold; font-width: normal; font-size: 20px; line-height: normal; font-family: Roboto, sans-serif; font-size-adjust: none; font-kerning: auto; font-variant-alternates: normal; font-variant-ligatures: normal; font-variant-numeric: normal; font-variant-east-asian: normal; font-variant-position: normal; font-variant-emoji: normal; font-feature-settings: normal; font-optical-sizing: auto; font-variation-settings: normal; white-space: pre;"><tspan x="16.26" y="34" dominant-baseline="ideographic">2</tspan></text></g></g></g><g id="g-root-cp_7_g-7_hsrwhqt6vw90-stroke" data-item-order="-932821" transform="translate(160, 166.76953125)"><g id="cp_7_g-7_hsrwhqt6vw90-stroke" fill="none" stroke-linecap="round" stroke-linejoin="round" stroke-miterlimit="4" stroke="#000000" stroke-width="4"><g><path d="M 202.4419 50.6672C 239.631 97.3009 231.9747 165.2527 185.341 202.4419C 138.7073 239.631 70.7554 231.9747 33.5663 185.341C -3.6229 138.7073 4.0335 70.7554 50.6672 33.5663C 97.3009 -3.6229 165.2527 4.0335 202.4419 50.6672Z"></path></g></g></g><g id="g-root-sy_7_Ellipse_8xrdbyt6vtvx-stroke" data-item-order="-932813" transform="translate(367.5, 201.7578125)"><g id="sy_7_Ellipse_8xrdbyt6vtvx-stroke" fill="none" stroke-linecap="round" stroke-linejoin="round" stroke-miterlimit="4" stroke="#000000" stroke-width="4"><style>.fillAsStrokeColor-mk-qtemamtgu2o8 { fill:#000000; }</style><g><path d="M 10 29.282969C 36.09 19.832969 63.61 13.372969 92.15 10.292969"></path><path d="M 93.6 10.192969L 89 13.492969L 88.4 7.892969Z" stroke-dasharray="none" class="fillAsStrokeColor-mk-qtemamtgu2o8" fill="#000000"></path></g></g></g><g id="g-root-cp_6_g-6_8xrdbyt6vtvy-stroke" data-item-order="-932811" transform="translate(26, 443)"><g id="cp_6_g-6_8xrdbyt6vtvy-stroke" fill="none" stroke-linecap="round" stroke-linejoin="round" stroke-miterlimit="4" stroke="#000000" stroke-width="4"><g><path d="M 118 10C 177.6468 10 226 58.3532 226 118C 226 177.6468 177.6468 226 118 226C 58.3532 226 10 177.6468 10 118C 10 58.3532 58.3532 10 118 10Z"></path></g></g></g><g id="g-root-sy_6_Ellipse_8xrdbyt6vtvz-stroke" data-item-order="-932803" transform="translate(153.26995849609375, 360.5)"><g id="sy_6_Ellipse_8xrdbyt6vtvz-stroke" fill="none" stroke-linecap="round" stroke-linejoin="round" stroke-miterlimit="4" stroke="#000000" stroke-width="4"><style>.fillAsStrokeColor-mk-me7l9atgu0ap { fill:#000000; }</style><g><path d="M 9.999725 87.999844C 19.259725 61.169844 31.639725 35.809844 46.729725 12.339844"></path><path d="M 47.499725 11.139844L 47.199725 16.839844L 42.399725 13.839844Z" stroke-dasharray="none" class="fillAsStrokeColor-mk-me7l9atgu0ap" fill="#000000"></path></g></g></g><g id="g-root-cp_5_g-5_ddkvget6vtvk-stroke" data-item-order="-932801" transform="translate(159.99972534179688, 719.89453125)"><g id="cp_5_g-5_ddkvget6vtvk-stroke" fill="none" stroke-linecap="round" stroke-linejoin="round" stroke-miterlimit="4" stroke="#000000" stroke-width="4"><g><path d="M 33.5663 50.666224C 70.7554 4.032524 138.7073 -3.623876 185.341 33.565324C 231.9747 70.754424 239.631 138.706324 202.4419 185.340024C 165.2527 231.973724 97.3009 239.630024 50.6672 202.440924C 4.0335 165.251724 -3.6229 97.299924 33.5663 50.666224Z"></path></g></g></g><g id="g-root-sy_5_Ellipse_ddkvget6vtvl-stroke" data-item-order="-932793" transform="translate(151.331787109375, 663.71875)"><g id="sy_5_Ellipse_ddkvget6vtvl-stroke" fill="none" stroke-linecap="round" stroke-linejoin="round" stroke-miterlimit="4" stroke="#000000" stroke-width="4"><style>.fillAsStrokeColor-mk-dikl0etgu13e { fill:#000000; }</style><g><path d="M 48.317727 90.899375C 32.797727 66.659375 20.157727 40.399375 10.857727 12.609375"></path><path d="M 10.457727 11.309375L 14.657727 15.109375L 9.357727 16.909375Z" stroke-dasharray="none" class="fillAsStrokeColor-mk-dikl0etgu13e" fill="#000000"></path></g></g></g><g id="g-root-cp_4_g-4_ddkvget6vtvm-stroke" data-item-order="-932791" transform="translate(457.9996337890625, 788.6484375)"><g id="cp_4_g-4_ddkvget6vtvm-stroke" fill="none" stroke-linecap="round" stroke-linejoin="round" stroke-miterlimit="4" stroke="#000000" stroke-width="4"><g><path d="M 12.7315 142.056C -0.5412 83.9047 35.8402 26.0041 93.9914 12.7315C 152.1427 -0.5412 210.0433 35.8402 223.3159 93.9914C 236.5886 152.1427 200.2073 210.0433 142.056 223.3159C 83.9047 236.5886 26.0041 200.2073 12.7315 142.056Z"></path></g></g></g><g id="g-root-sy_4_Ellipse_ddkvget6vtvn-stroke" data-item-order="-932783" transform="translate(365.354248046875, 886.17578125)"><g id="sy_4_Ellipse_ddkvget6vtvn-stroke" fill="none" stroke-linecap="round" stroke-linejoin="round" stroke-miterlimit="4" stroke="#000000" stroke-width="4"><style>.fillAsStrokeColor-mk-dikl0etgu13f { fill:#000000; }</style><g><path d="M 97.565638 30.100469C 68.055638 27.200469 39.615638 20.680469 12.685638 10.980469"></path><path d="M 11.285638 10.480469L 16.985638 9.480469L 14.985638 14.780469Z" stroke-dasharray="none" class="fillAsStrokeColor-mk-dikl0etgu13f" fill="#000000"></path></g></g></g><g id="g-root-cp_3_g-3_4hxv7it6vuoc-stroke" data-item-order="-932781" transform="translate(700.00048828125, 596.80859375)"><g id="cp_3_g-3_4hxv7it6vuoc-stroke" fill="none" stroke-linecap="round" stroke-linejoin="round" stroke-miterlimit="4" stroke="#000000" stroke-width="4"><g><path d="M 71.1654 215.3295C 17.4255 189.4497 -5.1595 124.9053 20.7202 71.1654C 46.6 17.4255 111.1444 -5.1595 164.8843 20.7202C 218.6242 46.6 241.2093 111.1444 215.3295 164.8843C 189.4497 218.6242 124.9053 241.2093 71.1654 215.3295Z"></path></g></g></g><g id="g-root-sy_3_Ellipse_4hxv7it6vuod-stroke" data-item-order="-932773" transform="translate(673.0419311523438, 799.46484375)"><g id="sy_3_Ellipse_4hxv7it6vuod-stroke" fill="none" stroke-linecap="round" stroke-linejoin="round" stroke-miterlimit="4" stroke="#000000" stroke-width="4"><style>.fillAsStrokeColor-mk-dikl0etgu13g { fill:#000000; }</style><g><path d="M 80.028516 10.003906C 59.898516 30.923906 37.208516 49.363906 12.478516 64.843906"></path><path d="M 11.178516 65.603906L 13.878516 60.603906L 16.878516 65.403906Z" stroke-dasharray="none" class="fillAsStrokeColor-mk-dikl0etgu13g" fill="#000000"></path></g></g></g><g id="g-root-cp_2_g-2_4hxv7it6vuoe-stroke" data-item-order="-932771" transform="translate(699, 290.52734375)"><g id="cp_2_g-2_4hxv7it6vuoe-stroke" fill="none" stroke-linecap="round" stroke-linejoin="round" stroke-miterlimit="4" stroke="#000000" stroke-width="4"><g><path d="M 164.8843 215.3295C 111.1444 241.2092 46.6 218.6242 20.7202 164.8843C -5.1595 111.1444 17.4255 46.6 71.1654 20.7202C 124.9053 -5.1595 189.4497 17.4255 215.3295 71.1654C 241.2092 124.9053 218.6242 189.4497 164.8843 215.3295Z"></path></g></g></g><g id="g-root-sy_2_Ellipse_4hxv7it6vuof-stroke" data-item-order="-932763" transform="translate(839, 507.703125)"><g id="sy_2_Ellipse_4hxv7it6vuof-stroke" fill="none" stroke-linecap="round" stroke-linejoin="round" stroke-miterlimit="4" stroke="#000000" stroke-width="4"><style>.fillAsStrokeColor-mk-92r2vytgu1vp { fill:#000000; }</style><g><path d="M 10 9.996094C 11.98 25.156094 13 40.606094 13 56.296094C 13 69.486094 12.28 82.516094 10.87 95.336094"></path><path d="M 10.7 96.796094L 8.4 91.496094L 14.1 92.096094Z" stroke-dasharray="none" class="fillAsStrokeColor-mk-92r2vytgu1vp" fill="#000000"></path></g></g></g><g id="g-root-cp_1_g-1_8xrdbyt6vuo0-stroke" data-item-order="-932761" transform="translate(459, 98.234375)"><g id="cp_1_g-1_8xrdbyt6vuo0-stroke" fill="none" stroke-linecap="round" stroke-linejoin="round" stroke-miterlimit="4" stroke="#000000" stroke-width="4"><g><path d="M 223.3159 142.056C 210.0433 200.2072 152.1427 236.5886 93.9915 223.3159C 35.8402 210.0433 -0.5412 152.1427 12.7315 93.9915C 26.0041 35.8402 83.9047 -0.5412 142.056 12.7315C 200.2072 26.0041 236.5886 83.9047 223.3159 142.056Z"></path></g></g></g><g id="g-root-sy_1_Ellipse_8xrdbyt6vuo1-stroke" data-item-order="-932753" transform="translate(671.1500244140625, 251)"><g id="sy_1_Ellipse_8xrdbyt6vuo1-stroke" fill="none" stroke-linecap="round" stroke-linejoin="round" stroke-miterlimit="4" stroke="#000000" stroke-width="4"><style>.fillAsStrokeColor-mk-92r2vytgu1vq { fill:#000000; }</style><g><path d="M 9.999878 10C 34.519878 24.85 57.089878 42.6 77.239878 62.76"></path><path d="M 78.199878 63.8L 72.699878 62.3L 76.699878 58.3Z" stroke-dasharray="none" class="fillAsStrokeColor-mk-92r2vytgu1vq" fill="#000000"></path></g></g></g><g id="g-root-ic_shie_dcyedat79vkc-stroke" data-item-order="-3600" transform="translate(86, 338)"></g><g id="g-root-ic_idea_142dbget79wqp-stroke" data-item-order="-3600" transform="translate(374, 129)"></g><g id="g-root-ic_stra_dbpg72t72wwf-stroke" data-item-order="-3600" transform="translate(861, 524)"></g><g id="g-root-ic_sear_1d3mlhat6vtos-stroke" data-item-order="-3600" transform="translate(722, 206)"></g><g id="g-root-ic_1_4o6m2mt75pu3-stroke" data-item-order="-3600" transform="translate(368, 914)"></g><g id="g-root-ic_flip_meu5hat774sm-stroke" data-item-order="-3600" transform="translate(92, 698)"></g><g id="g-root-ic_lapt_dgp8vyt74ah1-stroke" data-item-order="-3600" transform="translate(722, 844)"></g><g id="g-root-tx_planstra_1hegawut6vthe-stroke" data-item-order="0" transform="translate(699, 348)"></g><g id="g-root-tx_identify_4ot35qt6vtvu-stroke" data-item-order="0" transform="translate(178, 291)"></g><g id="g-root-tx_evaluate_144v7sut6vu2p-stroke" data-item-order="0" transform="translate(482, 913)"></g><g id="g-root-tx_developa_142zsjit6vv2b-stroke" data-item-order="0" transform="translate(723, 406)"></g><g id="g-root-tx_6_qva4out6vuo0-stroke" data-item-order="0" transform="translate(122, 454)"></g><g id="g-root-tx_mitigate_1d1r67yt6vuoe-stroke" data-item-order="0" transform="translate(68, 483)"></g><g id="g-root-tx_scananda_8zmslat6vtog-stroke" data-item-order="0" transform="translate(495, 222)"></g><g id="g-root-tx_pocmetho_1hckvnit6vugz-stroke" data-item-order="0" transform="translate(338, 544)"></g><g id="g-root-tx_applyand_zqanumt6vw9b-stroke" data-item-order="0" transform="translate(50, 567)"></g><g id="g-root-tx_3_1qbc9byt6vu33-stroke" data-item-order="0" transform="translate(794, 606.99609375)"></g><g id="g-root-tx_executet_dgp8vyt6vv2d-stroke" data-item-order="0" transform="translate(748, 637)"></g><g id="g-root-tx_reviewle_hzn4fyt6vvgp-stroke" data-item-order="0" transform="translate(202, 207)"></g><g id="g-root-tx_7_1qegmrit6vv9n-stroke" data-item-order="0" transform="translate(256, 181.99609375)"></g><g id="g-root-tx_5_1qcl7i6t6vw99-stroke" data-item-order="0" transform="translate(250, 723.99609375)"></g><g id="g-root-tx_conductt_4l28n2t6vvv2-stroke" data-item-order="0" transform="translate(724, 721)"></g><g id="g-root-tx_generate_hye69qt6vtaj-stroke" data-item-order="0" transform="translate(202, 772)"></g><g id="g-root-tx_identify_hunbr2t6vv9r-stroke" data-item-order="0" transform="translate(471, 138)"></g><g id="g-root-tx_4_qtepfit6vvnm-stroke" data-item-order="0" transform="translate(549, 796.99609375)"></g><g id="g-root-tx_analyzer_1hfp932t6vvnk-stroke" data-item-order="0" transform="translate(506, 829)"></g><g id="g-root-tx_createte_4mxnwet6vuvg-stroke" data-item-order="0" transform="translate(178, 856)"></g><g id="g-root-tx_1_1upac72t6vv29-stroke" data-item-order="0" transform="translate(555, 109.99609375)"></g><g id="g-root-tx_2_qs5r9at6vthg-stroke" data-item-order="0" transform="translate(802, 310)"></g></g></g><path id="whx4yq6th11j4" d="M65.283 12.757a.35.35 0 0 0 .584.157l5.203-5.141-6.183 3.523.396 1.461zm-2.216-11.7a.35.35 0 0 0-.522.305v3.111l3.276-1.868-2.754-1.548zm3.728 2.105l-4.25 2.421v2.445l6.391-3.644-2.141-1.222zm4.708 3.303a.35.35 0 0 0 0-.609l-1.592-.9-7.365 4.199v1.782a.35.35 0 0 0 .523.305l8.435-4.777z M44.542 2.513c0-.433.355-.783.792-.783s.792.35.792.783-.355.783-.792.783-.792-.35-.792-.783zm59.171 0c0-.433.355-.783.792-.783s.792.35.792.783-.355.783-.792.783-.792-.35-.792-.783zm-85.951 7.636h-1.27v-.487c-.276.201-.864.609-1.881.609-1.202 0-2.274-.794-2.137-2.078.118-1.106 1.153-1.584 1.848-1.727l2.17-.345c0-.539-.29-.956-1.064-1.006s-1.21.305-1.571 1.017l-1.124-.605c1.218-2.631 5.029-1.764 5.029.414v4.207zm-1.27-2.86c.006.396-.062 1.112-.819 1.59-.587.37-1.841.299-1.903-.395-.049-.555.461-.791.906-.898l1.816-.297zm72.662 2.86h-1.27v-.487c-.276.201-.864.609-1.881.609-1.202 0-2.274-.794-2.137-2.078.118-1.106 1.153-1.584 1.848-1.727l2.17-.345c0-.539-.29-.956-1.064-1.006s-1.21.305-1.571 1.017l-1.124-.605c1.218-2.631 5.029-1.764 5.029.414v4.207zm-1.27-2.86c.006.396-.062 1.112-.82 1.59-.587.37-1.841.299-1.903-.395-.049-.555.461-.791.906-.898l1.816-.297zM99.096 10.149H97.85v-8.45h1.246v4.895l2.68-2.559h1.738l-2.633 2.535 2.715 3.578h-1.556l-2.077-2.707-.867.844v1.863zm6.053-6.114h-1.255v6.113h1.255V4.035zm-59.2 0h-1.255v6.113h1.255V4.035zm5.584 6.113V1.697h1.255v2.695c.361-.346 1-.485 1.47-.485 1.452 0 2.477 1.082 2.457 2.448v3.792h-1.27v-3.68c0-.408-.214-1.339-1.315-1.339-.968 0-1.342.756-1.342 1.339v3.681h-1.255zm-4.76-4.894V4.039h.621a.45.45 0 0 0 .45-.45v-.855h1.251v1.305h1.309v1.215h-1.309v3.109c0 .293.105.664.648.664.365 0 .531-.035.736-.07v1.137s-.361.113-.857.113c-1.398 0-1.777-1.051-1.777-1.788V5.254h-1.071zM36.528 4.039h-1.394l2.191 6.106h1.125l1.234-3.918 1.238 3.918h1.129l2.188-6.106h-1.383l-1.359 3.93-1.256-3.93h-1.124l-1.242 3.957-1.348-3.957zM26.212 7.141c-.02 1.566 1.187 3.129 3.223 3.129 1.566 0 2.383-.918 2.734-1.719L31.172 8c-.315.399-.801 1.094-1.738 1.094-1.145 0-1.825-.781-1.891-1.52h4.625c.074-.284.148-.995-.03-1.559-.336-1.064-1.221-2.102-2.839-2.102s-3.088 1.152-3.088 3.227zm1.363-.75h3.348c-.055-.43-.566-1.301-1.623-1.301a1.79 1.79 0 0 0-1.725 1.301zm-8.758.75c.038 1.758 1.277 3.133 3.145 3.133 1.074 0 1.723-.477 1.961-.672v.547h1.242V1.703h-1.258v2.888c-.414-.36-1.062-.68-1.93-.68-1.91 0-3.198 1.473-3.16 3.23zm1.309-.08c0 1.119.723 1.978 1.836 1.978a1.88 1.88 0 0 0 1.94-1.904c0-1.371-1.011-1.99-1.972-1.99s-1.805.798-1.805 1.916zm76.683-.028C96.771 5.275 95.532 3.9 93.664 3.9c-1.074 0-1.723.477-1.961.672v-.547h-1.242v8.22h1.258V9.583c.414.36 1.063.68 1.93.68 1.91 0 3.198-1.473 3.16-3.23zm-1.309.08c0-1.119-.723-1.978-1.836-1.978a1.88 1.88 0 0 0-1.94 1.904c0 1.371 1.011 1.99 1.972 1.99S95.5 8.231 95.5 7.113zM106.441 10.173V4.036h1.254v.382c.361-.346 1-.485 1.47-.485 1.452 0 2.477 1.082 2.457 2.448v3.792h-1.27V6.492c0-.408-.214-1.339-1.315-1.339-.969 0-1.342.756-1.342 1.339v3.681h-1.254zm-30.383-.021V1.824h1.084l4.215 5.777V1.824h1.32v8.328h-1.094l-4.207-5.796v5.796h-1.319zM5.24 10.149H4V2.377h1.014l2.664 3.597 2.654-3.592h1.03v7.766h-1.256V4.762L7.678 8.068 5.24 4.742v5.407z" transform="translate(860, 1066)" fill="#80808088" stroke="none"></path></svg>